<?xml version="1.0" standalone="yes"?>
<svg xmlns="http://www.w3.org/2000/svg" width="920" height="907">
<path style="fill:#ffffff; stroke:none;" d="M0 0L0 15L15 15L15 30L0 30L0 45L15 45L15 60L0 60L0 75L15 75L15 90L0 90L0 105L15 105L15 120L0 120L0 135L15 135L15 150L0 150L0 165L15 165L15 180L0 180L0 195L15 195L15 210L0 210L0 225L15 225L15 240L0 240L0 255L15 255L15 270L0 270L0 285L15 285L15 300L0 300L0 315L15 315L15 330L0 330L0 345L15 345L15 360L0 360L0 375L15 375L15 390L0 390L0 405L15 405L15 420L0 420L0 435L15 435L15 450L0 450L0 465L15 465L15 480L0 480L0 495L15 495L15 510L0 510L0 525L15 525L15 540L0 540L0 555L15 555L15 570L0 570L0 585L15 585L15 600L0 600L0 615L15 615L15 630L0 630L0 645L15 645L15 660L0 660L0 675L15 675L15 690L0 690L0 705L15 705L15 720L0 720L0 735L15 735L15 750L0 750L0 765L15 765L15 780L0 780L0 795L15 795L15 810L0 810L0 825L15 825L15 840L0 840L0 855L15 855L15 870L0 870L0 885L15 885L15 900L0 900L0 907L15 907L15 900L30 900L30 907L45 907L45 900L60 900L60 907L75 907L75 900L90 900L90 907L105 907L105 900L120 900L120 907L135 907L135 900L150 900L150 907L165 907L165 900L180 900L180 907L195 907L195 900L210 900L210 907L225 907L225 900L240 900L240 907L255 907L255 900L270 900L270 907L285 907L285 900L300 900L300 907L315 907L315 900L330 900L330 907L345 907L345 900L360 900L360 907L375 907L375 900L390 900L390 907L405 907L405 900L420 900L420 907L435 907L435 900L450 900L450 907L465 907L465 900L480 900L480 907L495 907L495 900L510 900L510 907L525 907L525 900L540 900L540 907L555 907L555 900L570 900L570 907L585 907L585 900L600 900L600 907L615 907L615 900L630 900L630 907L645 907L645 900L660 900L660 907L675 907L675 900L690 900L690 907L705 907L705 900L720 900L720 907L735 907L735 900L750 900L750 907L765 907L765 900L780 900L780 907L795 907L795 900L810 900L810 907L825 907L825 900L840 900L840 907L855 907L855 900L870 900L870 907L885 907L885 900L900 900L900 907L915 907L915 900L920 900L920 885L915 885L915 870L920 870L920 855L915 855L915 840L920 840L920 825L915 825L915 810L920 810L920 795L915 795L915 780L920 780L920 765L915 765L915 750L920 750L920 735L915 735L915 720L920 720L920 705L915 705L915 690L920 690L920 675L915 675L915 660L920 660L920 645L915 645L915 630L920 630L920 615L915 615L915 600L920 600L920 585L915 585L915 570L920 570L920 555L915 555L915 540L920 540L920 525L915 525L915 510L920 510L920 495L915 495L915 480L920 480L920 465L915 465L915 450L920 450L920 435L915 435L915 420L920 420L920 405L915 405L915 390L920 390L920 375L915 375L915 360L920 360L920 345L915 345L915 330L920 330L920 315L915 315L915 300L920 300L920 285L915 285L915 270L920 270L920 255L915 255L915 240L920 240L920 225L915 225L915 210L920 210L920 195L915 195L915 180L920 180L920 165L915 165L915 150L920 150L920 135L915 135L915 120L920 120L920 105L915 105L915 90L920 90L920 75L915 75L915 60L920 60L920 45L915 45L915 30L920 30L920 15L915 15L915 0L900 0L900 15L885 15L885 0L870 0L870 15L855 15L855 0L840 0L840 15L825 15L825 0L810 0L810 15L795 15L795 0L780 0L780 15L765 15L765 0L750 0L750 15L735 15L735 0L720 0L720 15L705 15L705 0L690 0L690 15L675 15L675 0L660 0L660 15L645 15L645 0L630 0L630 15L615 15L615 0L600 0L600 15L585 15L585 0L570 0L570 15L555 15L555 0L540 0L540 15L525 15L525 0L510 0L510 15L495 15L495 0L480 0L480 15L465 15L465 0L450 0L450 15L435 15L435 0L420 0L420 15L405 15L405 0L390 0L390 15L405 15L405 23C410.334 22.2158 415.967 21.9419 421 24C422.865 23.3244 422.863 22.9044 424 24C425.879 22.8254 426.715 22.8694 429 23C425.661 30.1309 427.365 41.1333 427.522 49C427.839 64.8676 428.941 82.2726 427 98C424.885 97.4743 422.982 96.9009 421 96C420.276 99.0396 420.026 101.878 420 105L405 105L405 120L390 120L390 105L375 105L375 120L360 120L360 105L345 105L345 120L330 120L330 105L315 105L315 120L300 120L300 105L285 105L285 120L270 120L270 105L255 105L255 120L240 120L240 135L225 135L225 120L210 120L211 114C206.533 115.277 202.331 117.32 198 119C201.697 120.552 206.017 120 210 120L210 135L195 135L195 121C189.313 122.971 184.304 126.206 179 129L180 135C177.475 134.957 174.55 134.43 172.093 135.129C165.043 137.135 165.001 144.061 165 150C161.545 149.99 158.368 149.802 155 149C151.107 154.599 150.001 158.169 150 165C139.821 165.036 138.365 170.627 134.121 178.714C131.248 184.191 127.741 188.957 126 195L135 195L135 210C131.435 210 124.55 208.694 121.603 211.028C118.516 213.473 120 221.486 120 225L116 225L113 242C115.394 240.661 117.262 240.179 120 240L120 255C116.831 255.008 114.041 255.1 111 256C111.441 260.687 110.72 265.365 110 270L120 270L120 285L110 285L109 300L120 300L120 315L109 315L108 330L120 330L120 345L108 345L108 360L120 360L120 375L108 375L108 390L120 390L120 405L108 405L108 420L120 420L120 435L108 435L108 450L120 450L120 465L108 465L108 480L120 480L120 495L108 495L108 510L120 510L120 525L108 525L108 540L120 540L120 555L108 555L108 570L120 570L120 585L109 585L109 600L120 600L120 615L110 615L110 630L120 630L120 645L111 645C111.903 652.637 110.52 659.887 120 660L120 675L116 675C116.874 685.706 121.769 695.582 124 706C127.694 705.121 131.214 705.003 135 705L135 720L131 720L134 727C134.985 724.668 134.981 722.543 135 720L150 720L150 735L140 735C142.393 740.037 145.562 744.596 150 748L150 735L165 735L165 750L152 750C155.094 755.427 159.601 759.877 165 763L165 750L180 750L180 765L195 765L195 780L210 780L210 765L225 765L225 780L240 780L240 795L255 795L255 780L270 780L270 795L285 795L285 780L300 780L300 795L315 795L315 780L330 780L330 795L345 795L345 805C342.779 804.61 341.246 804.665 339 805C343.787 807.009 349.859 805.872 355 806.036C363.697 806.313 372.311 806.099 381 806.018C384.731 805.983 388.358 806.865 392 806C389.996 802.396 390.003 799.052 390 795L405 795L405 780L420 780L420 795L435 795L435 806L425 806C426.248 806.685 426.548 806.749 428 807C428 810.986 427.365 813.355 427 817L428 818L427 818C427.373 820.237 428 822.082 428 824L427 824C427 826.916 428 829.275 428 832L427 832C427 834.176 427.712 834.988 428 837L427 839L428 840C428 842.516 427.567 845.4 428 848L427 848C427.566 853.094 427.19 855.138 428 860L427 860L428 862C428 868.258 426.943 873.656 428 880L427 881L429 881L419 882L420 885L405 885L405 900L390 900L390 885L375 885L375 900L360 900L360 885L345 885L345 900L330 900L330 885L315 885L315 900L300 900L300 885L285 885L285 900L270 900L270 885L255 885L255 900L240 900L240 885L225 885L225 900L210 900L210 885L195 885L195 870L180 870C180.01 866.545 180.198 863.368 181 860C170.072 856.279 160.398 850.855 150 846L150 855L135 855L135 840L120 840L120 825L105 825C105 820.646 104.839 816.886 107 813C105.39 811.672 104.299 810.617 103 809C98.6623 810.033 94.4385 810 90 810C90 806.435 91.3064 799.55 88.9722 796.603C86.5271 793.516 78.5143 795 75 795L75 780L60 780L60 765C63.078 765.064 65.9749 765.438 69 766C64.8875 759.168 61.7343 752.149 58.2446 745C56.936 742.319 55.7755 737.861 53.3009 736.028C51.1412 734.428 47.5226 735.002 45 735C45 730.087 43.436 722.959 48 720L46 710C44.6726 713.163 45.0004 716.586 45 720L30 720L30 705L44 705C42.9372 701.227 42.4123 692.523 38.5702 690.603C36.1871 689.413 32.5856 690 30 690L30 675L38 675L36 660L30 660L30 645L34 645L34 630L30 630L30 615L33 615C33 611.209 32 608.694 32 605C32 603.862 32.5376 600.968 32 600L30 599C29.7105 597.842 30 596.199 30 595C30 591.637 29.3617 587.73 31 585L32 586C31.3615 580.948 31 576.101 31 571C29.2307 575.217 30 580.459 30 585L15 585L15 570L30 570L30 555L15 555L15 540L30 540L30 525L15 525L15 510L30 510L30 495L15 495L15 480L30 480C30 475.239 29.8917 470.655 31 466C25.854 464.479 20.3395 465 15 465L15 450L30 450L31 436C25.854 434.479 20.3395 435 15 435L15 420L30 420L30 405L15 405L15 390L30 390L30 375L15 375L15 360L30 360L30 345L15 345L15 330L30 330C30 322.113 32.0338 314.737 31.9992 307.001C31.9663 299.621 30 292.555 30 285L33 285L34 268L30 270L30 255L34 255L34 259C36.2284 253.69 35.984 245.785 36 240L30 240L30 225C32.2012 224.992 35.41 225.462 37.2585 223.972C40.1989 221.602 40.5208 213.558 41 210L30 210L30 195C35.3395 195 40.854 195.521 46 194C45.1274 189.3 45 184.769 45 180L50 180L55 165L45 165L45 150L60 150L60 135C62.9319 135 66.8939 135.654 69.6211 134.397C74.8265 131.996 74.9862 124.815 75 120C83.0655 119.733 85.1824 112.463 91 108L90 105C98.5382 102.589 105.76 92.0671 111.996 86.0394C115.573 82.5819 119.254 80.1265 120 75C126.353 74.31 130.624 70.0624 136 67C135.428 64.6229 135.11 62.442 135 60C140.842 60.0039 145.525 60.3142 151 58C149.967 53.6623 150 49.4385 150 45L165 45L165 50C168.783 48.9653 172.346 47.4171 176 46C172.568 44.5597 168.7 45 165 45L165 30L180 30L180 44C183.524 42.8079 191.854 41.3067 194.062 38.2114C195.579 36.0846 194.998 32.4594 195 30L210 30L210 15L225 15L225 0L210 0L210 15L195 15L195 0L180 0L180 15L165 15L165 0L150 0L150 15L135 15L135 0L120 0L120 15L105 15L105 0L90 0L90 15L75 15L75 0L60 0L60 15L45 15L45 0L30 0L30 15L15 15L15 0L0 0z"/>
<path style="fill:#e7e7e7; stroke:none;" d="M15 0L15 15L30 15L30 0L15 0M45 0L45 15L60 15L60 0L45 0M75 0L75 15L90 15L90 0L75 0M105 0L105 15L120 15L120 0L105 0M135 0L135 15L150 15L150 0L135 0M165 0L165 15L180 15L180 0L165 0M195 0L195 15L210 15L210 0L195 0M225 0L225 15L210 15L210 30L195 30L195 38C199.922 36.4261 204.882 34.753 210 34L210 30L225 30L225 15L240 15L240 27L255 26L255 15L270 15L270 24L284 24C284.9 20.959 284.992 18.1691 285 15L300 15L300 23L315 22L315 15L330 15L330 22C336.897 21.961 344.718 23.6638 345 15L360 15L360 21L375 21L375 15L390 15L390 21L405 21L405 15L390 15L390 0L375 0L375 15L360 15L360 0L345 0L345 15L330 15L330 0L315 0L315 15L300 15L300 0L285 0L285 15L270 15L270 0L255 0L255 15L240 15L240 0L225 0z"/>
<path style="fill:#ffffff; stroke:none;" d="M240 0L240 15L255 15L255 0L240 0M270 0L270 15L285 15L285 0L270 0M300 0L300 15L315 15L315 0L300 0M330 0L330 15L345 15L345 0L330 0M360 0L360 15L375 15L375 0L360 0z"/>
<path style="fill:#e7e7e7; stroke:none;" d="M405 0L405 15L420 15L420 0L405 0M435 0L435 15L450 15L450 0L435 0M465 0L465 15L480 15L480 0L465 0M495 0L495 15L510 15L510 0L495 0M525 0L525 15L540 15L540 0L525 0M555 0L555 15L570 15L570 0L555 0M585 0L585 15L600 15L600 0L585 0M615 0L615 15L630 15L630 0L615 0M645 0L645 15L660 15L660 0L645 0M675 0L675 15L690 15L690 0L675 0M705 0L705 15L720 15L720 0L705 0M735 0L735 15L750 15L750 0L735 0M765 0L765 15L780 15L780 0L765 0M795 0L795 15L810 15L810 0L795 0M825 0L825 15L840 15L840 0L825 0M855 0L855 15L870 15L870 0L855 0M885 0L885 15L900 15L900 0L885 0M915 0L915 15L920 15L920 0L915 0M0 15L0 30L15 30L15 15L0 15M30 15L30 30L15 30L15 45L30 45L30 60L15 60L15 75L30 75L30 90L15 90L15 105L30 105L30 120L15 120L15 135L30 135L30 150L15 150L15 165L30 165L30 180L15 180L15 195L30 195L30 180L45 180L45 165L30 165L30 150L45 150L45 135L60 135L60 120L75 120L75 105L90 105L90 90L105 90L105 75L120 75L120 60L135 60L135 45L150 45L150 30L165 30L165 15L150 15L150 30L135 30L135 15L120 15L120 30L105 30L105 15L90 15L90 30L75 30L75 15L60 15L60 30L45 30L45 15L30 15M180 15L180 30L195 30L195 15L180 15z"/>
<path style="fill:#f9f9f9; stroke:none;" d="M225 15L225 30L210 30L210 34L219 33C217.854 33.9172 217 33.6907 217 35C217 36.1907 218 36.2474 218 38L217 38C218.043 44.2557 216.995 51.9689 218 58L217 59L219 59C217.281 61.9592 216.496 66.3621 219 69C216.396 71.0829 216.149 74.4298 219 75C217.228 77.6584 218 77.645 218 80C218 80.8951 215.928 80.3856 219 81L217 82C217.65 83.2996 217.147 83 219 83L217 84C218.067 92.7244 218.519 103.362 217 112C219.73 111.883 222.314 111.501 225 111L225 120L240 120L240 107C248.509 105.901 257.333 103.145 265.961 103.299C272.213 103.41 278.51 105 285 105C287.426 99.9926 295.059 101.003 300 101L300 105L315 105L315 100L330 100L330 105L345 105L345 99C349.506 100.199 355.471 100.249 360 99L360 105L375 105L375 99L390 99L390 105L405 105L405 99C410.074 99 417.942 100.717 421 96C423.04 97.4205 424.533 97.7266 427 98C428.618 91.7451 427.678 84.7585 427.667 78.3333C427.645 65.8043 427.52 53.2376 427.809 40.7145C427.944 34.8812 426.848 28.5148 429 23C426.969 22.8472 426.409 22.674 425 24C423.977 22.4659 424.196 22.5978 423 22L421 24C417.031 21.0168 409.631 21.6967 405 23C401.912 19.4659 394.431 21 390 21L390 15L375 15L375 21L360 21L360 15L345 15C344.402 23.0113 336.511 21.879 330 22L330 15L315 15L315 22C309.953 22.0286 305.011 22.4645 300 23L300 15L285 15C284.974 18.1218 284.724 20.9604 284 24C279.411 23.4956 274.642 24 270 24L270 15L255 15L255 26L240 27L240 15L225 15z"/>
<path style="fill:#e7e7e7; stroke:none;" d="M420 15L420 21L435 21L435 15L420 15M450 15L450 21L465 21L465 15L450 15M480 15L480 21L495 21L495 15L480 15M510 15L510 21L525 21L525 15L510 15M540 15L540 21L555 21L555 15L540 15M570 15L570 21C574.967 21.0921 580.058 21.4698 585 22L585 15L570 15M600 15L600 22C605.081 22 610.03 21.8168 615 23L615 15L600 15M630 15L630 23L645 24L645 15L630 15M660 15L660 25C664.988 25.2141 670.144 25.8407 675 27L675 15L660 15M690 15L690 29C700.519 30.3294 709.862 32.7583 720 36L720 30L735 30L735 41C745.552 43.5005 755.057 48.8656 765 53L765 45L780 45C780 49.9453 781.089 55.9227 778 60C783.086 61.2216 789.661 60 795 60C795 63.5299 794.109 68.6334 796.028 71.7716C798.713 76.1633 805.646 75 810 75C810.008 85.6107 814.389 89.9918 825 90C825.009 101.023 829.182 104.999 840 105C840 109.055 838.711 116.265 842.573 118.972C845.608 121.101 851.468 120 855 120C855 124.945 856.089 130.923 853 135L854 138C854.685 136.751 854.749 136.452 855 135L870 135L870 150L861 150C863.426 155.834 867.285 161.346 869.454 167.17C870.796 170.771 870.286 176.41 873.702 178.972C876.412 181.005 881.798 180 885 180L885 195L878 195C879.42 200.04 879.492 208.178 885 210L885 225L900 225L900 240L887 240L888 255L900 255L900 270C896.199 270 892.657 269.919 889 271C890.108 275.655 890 280.239 890 285L900 285L900 300L891 300L891 315L900 315L900 330L892 330L892 345L900 345L900 360L892 360L892 375L900 375L900 390L892 390L892 405L900 405L900 420L892 420L892 435L900 435L900 450L892 450C892.294 457.826 890.066 464.882 900 465L900 480L892 480L892 495L900 495L900 510L892 510L892 525L900 525L900 540L892 540L892 555L900 555L900 570L892 570C891.908 574.969 891.538 580.056 891 585L900 585L900 600L891 600L890 615L900 615L900 630C897.33 630 893.051 629.251 890.792 630.988C887.617 633.43 889 641.508 889 645L900 645L900 660L887 660C886.784 665.029 885.922 670.053 885 675L900 675L900 690L885 690L885 680C881.569 687.139 885 697.139 885 705C876.844 705.271 876.407 713.202 875 720L885 720L885 735L870 735L870 750C860.708 750.11 858.87 757.645 855 765L870 765L870 780L855 780L855 766C851.414 770.113 848.333 775.068 846 780L855 780L855 795L840 795L840 788C837.831 790.147 836.364 792.269 835 795L840 795L840 810L825 810L825 806C823.247 807.33 822.33 808.247 821 810L825 810L825 825L810 825L810 820C807.864 821.549 806.549 822.864 805 825L810 825L810 840L795 840L795 833C791.367 834.528 788.259 836.785 785 839C788.163 840.327 791.586 840 795 840L795 855L780 855L780 843C774.171 845.122 766.086 848.321 765 855C760.623 855 753.82 854.093 751.028 858.394C749.074 861.405 750 866.569 750 870L735 870L735 864C724.802 866.338 715.275 869.88 705 872L705 885L690 885L690 875C682.293 876.899 675.114 875.366 675 885L660 885L660 879L645 880L645 885L630 885L630 881L616 881L615 885L600 885L600 882L585 882C582.641 885.639 578.125 885.351 574.039 884.871C569.155 884.298 565.1 882.829 560.015 883.018C552.128 883.312 546.785 885.406 538.714 883.455C530.543 881.48 523.099 885.508 515.015 884.946C509.835 884.586 505.385 882.818 500.015 883.018C495.183 883.198 490.961 885.154 486.004 884.982C480.513 884.79 475.675 882.808 470.015 883.018C465.866 883.173 462.195 884.951 457.999 884.995C451.828 885.058 446.291 882.785 440.015 883.018C433.294 883.269 426.929 885 420 885L420 900L435 900L435 885L450 885L450 900L465 900L465 885L480 885L480 900L495 900L495 885L510 885L510 900L525 900L525 885L540 885L540 900L555 900L555 885L570 885L570 900L585 900L585 885L600 885L600 900L615 900L615 885L630 885L630 900L645 900L645 885L660 885L660 900L675 900L675 885L690 885L690 900L705 900L705 885L720 885L720 900L735 900L735 885L750 885L750 900L765 900L765 885L780 885L780 900L795 900L795 885L810 885L810 900L825 900L825 885L840 885L840 900L855 900L855 885L870 885L870 900L885 900L885 885L900 885L900 900L915 900L915 885L900 885L900 870L915 870L915 855L900 855L900 840L915 840L915 825L900 825L900 810L915 810L915 795L900 795L900 780L915 780L915 765L900 765L900 750L915 750L915 735L900 735L900 720L915 720L915 705L900 705L900 690L915 690L915 675L900 675L900 660L915 660L915 645L900 645L900 630L915 630L915 615L900 615L900 600L915 600L915 585L900 585L900 570L915 570L915 555L900 555L900 540L915 540L915 525L900 525L900 510L915 510L915 495L900 495L900 480L915 480L915 465L900 465L900 450L915 450L915 435L900 435L900 420L915 420L915 405L900 405L900 390L915 390L915 375L900 375L900 360L915 360L915 345L900 345L900 330L915 330L915 315L900 315L900 300L915 300L915 285L900 285L900 270L915 270L915 255L900 255L900 240L915 240L915 225L900 225L900 210L915 210L915 195L900 195L900 180L915 180L915 165L900 165L900 150L915 150L915 135L900 135L900 120L915 120L915 105L900 105L900 90L915 90L915 75L900 75L900 60L915 60L915 45L900 45L900 30L915 30L915 15L900 15L900 30L885 30L885 15L870 15L870 30L855 30L855 15L840 15L840 30L825 30L825 15L810 15L810 30L795 30L795 15L780 15L780 30L765 30L765 15L750 15L750 30L735 30L735 15L720 15L720 30L705 30L705 15L690 15z"/>
<path style="fill:#ffffff; stroke:none;" d="M30 30L30 45L45 45L45 60L30 60L30 75L45 75L45 90L30 90L30 105L45 105L45 120L30 120L30 135L45 135L45 120L60 120L60 105L75 105L75 90L90 90L90 75L105 75L105 60L120 60L120 45L135 45L135 30L120 30L120 45L105 45L105 30L90 30L90 45L75 45L75 30L60 30L60 45L45 45L45 30L30 30z"/>
<path style="fill:#e7e7e7; stroke:none;" d="M165 30L165 45C168.957 45 176.303 46.2216 178.972 42.4861C181.12 39.4803 180 33.5167 180 30L165 30z"/>
<path style="fill:#ffffff; stroke:none;" d="M750 30L750 45L765 45L765 30L750 30M780 30L780 45L795 45L795 60L810 60L810 75L825 75L825 90L840 90L840 105L855 105L855 120L870 120L870 135L885 135L885 150L870 150L870 165L885 165L885 180L900 180L900 165L885 165L885 150L900 150L900 135L885 135L885 120L900 120L900 105L885 105L885 90L900 90L900 75L885 75L885 60L900 60L900 45L885 45L885 30L870 30L870 45L855 45L855 30L840 30L840 45L825 45L825 30L810 30L810 45L795 45L795 30L780 30z"/>
<path style="fill:#e7e7e7; stroke:none;" d="M915 30L915 45L920 45L920 30L915 30z"/>
<path style="fill:#f5f5f5; stroke:none;" d="M120 75C118.699 80.0234 114.622 82.5637 110.999 86.0394C104.541 92.235 98.1815 101.176 90 105C90 106.797 90.0143 106.521 91 108C81.5548 112.796 76.4065 125.389 70.5756 133.714C62.7836 144.84 58.1989 156.426 53.3881 169C43.7733 194.131 38.3703 218.309 35.8302 245C35.279 250.793 33.7447 256.41 33.1327 262.089C32.7739 265.419 33.7895 268.677 33.625 272C33.1954 280.678 31.6537 289.305 31.4552 298C31.3561 302.345 32.2102 306.62 31.9105 311C29.0589 352.68 29.5466 394.734 30.162 436.572C30.7812 478.664 30.2025 520.908 29.7099 563C29.6586 567.381 30.7512 571.642 30.9614 576C31.8236 593.877 32.9369 612.13 32 630C35.5061 634.628 33.9737 642.393 34.0008 648C34.0494 658.077 36.4692 668.484 37.3603 678.576C38.4457 690.866 43.1343 703.322 46.6914 715.015C53.8875 738.671 63.7362 764.069 78.8881 784.039C83.3255 789.888 88.1585 795.33 92.8048 801.004C95.7491 804.599 98.3174 808.2 103 809C104.155 811.133 104.882 811.782 107 813C108.405 821.159 122.583 829.224 128.996 834.13C141.651 843.809 156.533 850.647 171.285 856.478C176.376 858.491 180.942 861.576 186.015 863.572C195.308 867.228 208.068 870.134 218 871C217.93 869.048 217.646 869.06 219 868C218.35 866.7 218.853 867 217 867L219 866C218.35 864.7 218.853 865 217 865L219 855C215.949 851.765 217.851 842.287 217.884 837.884C218 822.594 217.411 807.281 218 792C211.381 790.171 198.588 785.934 195 780C185.733 779.384 180.032 774.159 180 765C176.045 765 171.766 765.438 168 764.005C155.571 759.278 145.215 742.918 138.83 732.015C133.196 722.394 127.392 712.534 123.442 701.975C113.313 674.897 110 643.736 110 615C110 597.664 108.127 580.308 108.005 563C107.967 557.628 109.017 552.38 108.999 547C108.808 487.378 108.808 427.622 108.999 368C109.045 353.7 107.771 339.279 108.129 325C108.246 320.325 109.533 315.68 109.845 311C110.162 306.252 109.34 301.701 109.34 297C109.34 291.655 110.727 286.333 110.961 281C111.697 264.184 111.327 246.466 115.439 230.015C120.312 210.521 127.095 190.41 137.108 172.999C142.095 164.327 150.658 158.195 155 149C160.886 147.995 163.911 142.291 168.035 138.353C171.415 135.126 175.932 133.218 180 131L179 129C192.47 124.097 203.76 116.178 218 113C217.305 105.942 217.946 98.7834 217.694 91.6945C217.605 89.1685 216.863 85.4058 219 84C218.35 82.7002 218.853 83 217 83L219 82C218.35 80.7003 218.853 81 217 81L219 75C217.332 73.508 217.034 71.2937 219 70C217.558 67.6931 216.559 61.3427 219 60C216.128 55.4053 217.833 46.3188 217.833 40.8333C217.833 38.3813 216.691 35.0994 219 34C211.085 30.9108 199.845 36.3666 192.424 39.098C174.51 45.6923 157.663 52.6966 140.975 61.9398C133.679 65.9815 128.535 73.3486 120 75z"/>
<path style="fill:#e7e7e7; stroke:none;" d="M0 45L0 60L15 60L15 45L0 45M60 45L60 60L45 60L45 75L60 75L60 90L45 90L45 105L60 105L60 90L75 90L75 75L90 75L90 60L105 60L105 45L90 45L90 60L75 60L75 45L60 45M150 45L150 57C155.113 54.7969 159.615 51.5541 165 50L165 45L150 45M810 45L810 60L825 60L825 75L840 75L840 90L855 90L855 105L870 105L870 120L885 120L885 105L870 105L870 90L885 90L885 75L870 75L870 60L885 60L885 45L870 45L870 60L855 60L855 45L840 45L840 60L825 60L825 45L810 45z"/>
<path style="fill:#ffffff; stroke:none;" d="M60 60L60 75L75 75L75 60L60 60z"/>
<path style="fill:#e7e7e7; stroke:none;" d="M135 60L135 66L144 61C141.11 59.787 138.126 60.0018 135 60z"/>
<path style="fill:#ffffff; stroke:none;" d="M840 60L840 75L855 75L855 90L870 90L870 75L855 75L855 60L840 60z"/>
<path style="fill:#e7e7e7; stroke:none;" d="M915 60L915 75L920 75L920 60L915 60M0 75L0 90L15 90L15 75L0 75M915 90L915 105L920 105L920 90L915 90M345 99L345 105L360 105L360 99C355.128 99.5961 349.852 99.692 345 99M375 99L375 105L390 105L390 99L375 99M405 99L405 105L420 105L420 99L405 99M435 99L435 105L420 105L420 120L405 120L405 135L390 135L390 120L375 120L375 135L360 135L360 120L345 120L345 135L330 135L330 120L315 120L315 135L300 135L300 120L285 120L285 135L270 135L270 120L255 120L255 135L240 135L240 150L225 150L225 135L210 135L210 150L195 150L195 135L180 135L180 150L165 150L165 165L150 165L150 180L135 180L135 195L150 195L150 210L135 210L135 225L120 225L120 240L135 240L135 255L120 255L120 270L135 270L135 285L120 285L120 300L135 300L135 315L120 315L120 330L135 330L135 345L120 345L120 360L135 360L135 375L120 375L120 390L135 390L135 405L120 405L120 420L135 420L135 435L120 435L120 450L135 450L135 465L120 465L120 480L135 480L135 495L120 495L120 510L135 510L135 525L120 525L120 540L135 540L135 555L120 555L120 570L135 570L135 585L120 585L120 600L135 600L135 615L120 615L120 630L135 630L135 645L120 645L120 660L135 660L135 675L120 675L120 690L135 690L135 705L150 705L150 720L165 720L165 735L180 735L180 750L195 750L195 765L210 765L210 750L225 750L225 765L240 765L240 780L255 780L255 765L270 765L270 780L285 780L285 765L300 765L300 780L315 780L315 765L330 765L330 780L345 780L345 795L360 795L360 805L375 805L375 795L390 795L390 780L405 780L405 765L420 765L420 780L435 780L435 795L450 795L450 805L465 805L465 795L480 795L480 805L495 805L495 795L510 795L510 805L525 805L525 795L540 795L540 805L555 805L555 795L570 795L570 805L585 804L585 795L600 795L600 804C603.451 804 611.719 805.415 614.062 802.208C615.442 800.318 614.992 797.193 615 795L630 795L630 803L645 802L645 795L660 795L660 800C665.176 799.986 673.09 800.76 675 795L690 795L690 780L705 780L705 791C711.828 789.42 719.732 788.051 720 780C723.622 780 731.406 781.429 733.972 778.258C736.307 775.372 735 768.512 735 765C739.913 765 747.041 763.436 750 768L754 766C752.494 765.317 751.685 765.174 750 765L750 750L765 750L765 755C766.627 753.412 767.774 751.922 769 750L765 750L765 735L780 735L780 720C783.069 720 787.709 720.826 790.363 718.972C793.753 716.604 794.212 711.696 795.256 708.089C797.043 701.918 800.512 696.43 802 690L795 690L795 675L806 675C806.939 670.018 807.895 665.079 808 660L795 660L795 645L810 645C810 636.585 812.067 628.299 811.967 620.015C811.886 613.374 810 606.868 810 600L813 600L813 585L810 585L810 570L814 569C813.557 564.329 813.94 559.681 814 555L810 555L810 540L814 540L814 525L810 525L810 510L814 510L814 495L810 495L810 480L814 480L814 465L810 465L810 450L814 450L814 435L810 435L810 420L814 420L814 405L810 405L810 390L814 390L814 375L810 375L810 360L814 360L814 345L810 345L810 330L813 330L813 315L810 315C810 307.113 812.034 299.737 811.999 292.001C811.966 284.621 810 277.555 810 270L795 270L795 255L810 255L808 240L795 240L795 225L805 225C803.582 218.128 803.316 210.276 795 210L795 195L780 195L780 180L788 180C786.289 175.327 783.404 171.335 781 167C779.339 170.959 780 175.737 780 180L765 180L765 165L778 165C773.464 154.287 760.012 141.787 750 136L750 150L735 150L735 135L749 135C744.996 131.165 740.082 128.193 735 126L735 135L720 135L720 120L705 120C704.894 111.06 697.981 109.696 690 109L690 120L675 120C675 116.435 676.306 109.55 673.972 106.603C672.056 104.184 667.683 105.134 665.015 104.946C658.352 104.477 651.824 102.328 645 102L645 105L630 105L630 101L615 101L615 105L600 105L600 100L585 100L585 105L570 105L570 99C565.001 99.6117 560.018 99.0286 555 99L555 105L540 105L540 99L525 99L525 105L510 105L510 99L495 99L495 105L480 105L480 99L465 99L465 105L450 105L450 99L435 99M315 100L315 105L330 105L330 100L315 100M285 105L300 105L300 101C295.198 101 286.517 99.3408 285 105M255 104C259.471 105.876 265.183 105 270 105L270 103L255 104M0 105L0 120L15 120L15 105L0 105M240 107L240 120L255 120L255 105C249.853 105.043 245.034 106.024 240 107M270 105L270 120L285 120L285 105L270 105M300 105L300 120L315 120L315 105L300 105M330 105L330 120L345 120L345 105L330 105M360 105L360 120L375 120L375 105L360 105M390 105L390 120L405 120L405 105L390 105z"/>
<path style="fill:#ffffff; stroke:none;" d="M435 105L435 120L420 120L420 135L405 135L405 150L390 150L390 135L375 135L375 150L360 150L360 135L345 135L345 150L330 150L330 135L315 135L315 150L300 150L300 135L285 135L285 150L270 150L270 135L255 135L255 150L240 150L240 165L225 165L225 150L210 150L210 165L195 165L195 150L180 150L180 165L165 165L165 180L150 180L150 195L165 195L165 210L150 210L150 225L135 225L135 240L150 240L150 255L135 255L135 270L150 270L150 285L135 285L135 300L150 300L150 315L135 315L135 330L150 330L150 345L135 345L135 360L150 360L150 375L135 375L135 390L150 390L150 405L135 405L135 420L150 420L150 435L135 435L135 450L150 450L150 465L135 465L135 480L150 480L150 495L135 495L135 510L150 510L150 525L135 525L135 540L150 540L150 555L135 555L135 570L150 570L150 585L135 585L135 600L150 600L150 615L135 615L135 630L150 630L150 645L135 645L135 660L150 660L150 675L135 675L135 690L150 690L150 705L165 705L165 720L180 720L180 735L195 735L195 750L210 750L210 735L225 735L225 750L240 750L240 765L255 765L255 750L270 750L270 765L285 765L285 750L300 750L300 765L315 765L315 750L330 750L330 765L345 765L345 780L360 780L360 795L375 795L375 780L390 780L390 765L405 765L405 750L420 750L420 765L435 765L435 780L450 780L450 795L465 795L465 780L480 780L480 795L495 795L495 780L510 780L510 795L525 795L525 780L540 780L540 795L555 795L555 780L570 780L570 795L585 795L585 780L600 780L600 795L615 795L615 780L630 780L630 795L645 795L645 780L660 780L660 795L675 795L675 780L690 780L690 765L705 765L705 780L720 780L720 765L735 765L735 750L750 750L750 735L765 735L765 720L780 720L780 705L795 705L795 690L780 690L780 675L795 675L795 660L780 660L780 645L795 645L795 630L810 630L810 615L795 615L795 600L810 600L810 585L795 585L795 570L810 570L810 555L795 555L795 540L810 540L810 525L795 525L795 510L810 510L810 495L795 495L795 480L810 480L810 465L795 465L795 450L810 450L810 435L795 435L795 420L810 420L810 405L795 405L795 390L810 390L810 375L795 375L795 360L810 360L810 345L795 345L795 330L810 330L810 315L795 315L795 300L810 300L810 285L795 285L795 270L780 270L780 255L795 255L795 240L780 240L780 225L795 225L795 210L780 210L780 195L765 195L765 180L750 180L750 165L765 165L765 150L750 150L750 165L735 165L735 150L720 150L720 135L705 135L705 120L690 120L690 135L675 135L675 120L660 120L660 105L645 105L645 120L630 120L630 105L615 105L615 120L600 120L600 105L585 105L585 120L570 120L570 105L555 105L555 120L540 120L540 105L525 105L525 120L510 120L510 105L495 105L495 120L480 120L480 105L465 105L465 120L450 120L450 105L435 105z"/>
<path style="fill:#e7e7e7; stroke:none;" d="M210 120L225 120L225 111C218.819 111.833 210.584 112.673 210 120M75 120L75 125C76.9136 123.394 77.837 122.217 79 120L75 120M195 135L210 135L210 120C206.178 120 199.598 118.811 196.603 121.742C193.72 124.565 195 131.322 195 135M225 120L225 135L240 135L240 120L225 120M435 120L435 135L420 135L420 150L405 150L405 165L390 165L390 150L375 150L375 165L360 165L360 150L345 150L345 165L330 165L330 150L315 150L315 165L300 165L300 150L285 150L285 165L270 165L270 150L255 150L255 165L240 165L240 180L225 180L225 165L210 165L210 180L195 180L195 165L180 165L180 180L165 180L165 195L180 195L180 210L165 210L165 225L150 225L150 240L165 240L165 255L150 255L150 270L165 270L165 285L150 285L150 300L165 300L165 315L150 315L150 330L165 330L165 345L150 345L150 360L165 360L165 375L150 375L150 390L165 390L165 405L150 405L150 420L165 420L165 435L150 435L150 450L165 450L165 465L150 465L150 480L165 480L165 495L150 495L150 510L165 510L165 525L150 525L150 540L165 540L165 555L150 555L150 570L165 570L165 585L150 585L150 600L165 600L165 615L150 615L150 630L165 630L165 645L150 645L150 660L165 660L165 675L150 675L150 690L165 690L165 705L180 705L180 720L195 720L195 735L210 735L210 720L225 720L225 735L240 735L240 750L255 750L255 735L270 735L270 750L285 750L285 735L300 735L300 750L315 750L315 735L330 735L330 750L345 750L345 765L360 765L360 780L375 780L375 765L390 765L390 750L405 750L405 735L420 735L420 750L435 750L435 765L450 765L450 780L465 780L465 765L480 765L480 780L495 780L495 765L510 765L510 780L525 780L525 765L540 765L540 780L555 780L555 765L570 765L570 780L585 780L585 765L600 765L600 780L615 780L615 765L630 765L630 780L645 780L645 765L660 765L660 780L675 780L675 765L690 765L690 750L705 750L705 765L720 765L720 750L735 750L735 735L750 735L750 720L765 720L765 705L780 705L780 690L765 690L765 675L780 675L780 660L765 660L765 645L780 645L780 630L795 630L795 615L780 615L780 600L795 600L795 585L780 585L780 570L795 570L795 555L780 555L780 540L795 540L795 525L780 525L780 510L795 510L795 495L780 495L780 480L795 480L795 465L780 465L780 450L795 450L795 435L780 435L780 420L795 420L795 405L780 405L780 390L795 390L795 375L780 375L780 360L795 360L795 345L780 345L780 330L795 330L795 315L780 315L780 300L795 300L795 285L780 285L780 270L765 270L765 255L780 255L780 240L765 240L765 225L780 225L780 210L765 210L765 195L750 195L750 180L735 180L735 165L720 165L720 150L705 150L705 135L690 135L690 150L675 150L675 135L660 135L660 120L645 120L645 135L630 135L630 120L615 120L615 135L600 135L600 120L585 120L585 135L570 135L570 120L555 120L555 135L540 135L540 120L525 120L525 135L510 135L510 120L495 120L495 135L480 135L480 120L465 120L465 135L450 135L450 120L435 120M915 120L915 135L920 135L920 120L915 120M174 134C176.052 134.874 177.747 134.953 180 135L180 131C177.778 131.81 176.01 132.739 174 134M0 135L0 150L15 150L15 135L0 135M60 135L60 150C64.1149 146.01 67.0469 140.365 69 135L60 135z"/>
<path style="fill:#ffffff; stroke:none;" d="M435 135L435 150L420 150L420 165L405 165L405 180L390 180L390 165L375 165L375 180L360 180L360 165L345 165L345 180L330 180L330 165L315 165L315 180L300 180L300 165L285 165L285 180L270 180L270 165L255 165L255 180L240 180L240 195L225 195L225 180L210 180L210 195L195 195L195 180L180 180L180 195L195 195L195 210L180 210L180 225L165 225L165 240L180 240L180 255L165 255L165 270L180 270L180 285L165 285L165 300L180 300L180 315L165 315L165 330L180 330L180 345L165 345L165 360L180 360L180 375L165 375L165 390L180 390L180 405L165 405L165 420L180 420L180 435L165 435L165 450L180 450L180 465L165 465L165 480L180 480L180 495L165 495L165 510L180 510L180 525L165 525L165 540L180 540L180 555L165 555L165 570L180 570L180 585L165 585L165 600L180 600L180 615L165 615L165 630L180 630L180 645L165 645L165 660L180 660L180 675L165 675L165 690L180 690L180 705L195 705L195 720L210 720L210 705L225 705L225 720L240 720L240 735L255 735L255 720L270 720L270 735L285 735L285 720L300 720L300 735L315 735L315 720L330 720L330 735L345 735L345 750L360 750L360 765L375 765L375 750L390 750L390 735L405 735L405 720L420 720L420 735L435 735L435 750L450 750L450 765L465 765L465 750L480 750L480 765L495 765L495 750L510 750L510 765L525 765L525 750L540 750L540 765L555 765L555 750L570 750L570 765L585 765L585 750L600 750L600 765L615 765L615 750L630 750L630 765L645 765L645 750L660 750L660 765L675 765L675 750L690 750L690 735L705 735L705 750L720 750L720 735L735 735L735 720L750 720L750 705L765 705L765 690L750 690L750 675L765 675L765 660L750 660L750 645L765 645L765 630L780 630L780 615L765 615L765 600L780 600L780 585L765 585L765 570L780 570L780 555L765 555L765 540L780 540L780 525L765 525L765 510L780 510L780 495L765 495L765 480L780 480L780 465L765 465L765 450L780 450L780 435L765 435L765 420L780 420L780 405L765 405L765 390L780 390L780 375L765 375L765 360L780 360L780 345L765 345L765 330L780 330L780 315L765 315L765 300L780 300L780 285L765 285L765 270L750 270L750 255L765 255L765 240L750 240L750 225L765 225L765 210L750 210L750 195L735 195L735 180C731.279 180 724.483 181.276 721.603 178.397C718.724 175.517 720 168.721 720 165L705 165L705 150L690 150L690 165L675 165L675 150L660 150L660 135L645 135L645 150L630 150L630 135L615 135L615 150L600 150L600 135L585 135L585 150L570 150L570 135L555 135L555 150L540 150L540 135L525 135L525 150L510 150L510 135L495 135L495 150L480 150L480 135L465 135L465 150L450 150L450 135L435 135z"/>
<path style="fill:#e7e7e7; stroke:none;" d="M164 142C161.455 144.564 159.076 147.047 157 150L165 150C164.993 147.165 165.098 144.613 164 142M45 150L45 165C47.6066 165 51.1709 165.573 53.5818 164.397C57.6762 162.399 59.581 154.091 60 150L45 150M435 150L435 165L420 165L420 180L405 180L405 195L390 195L390 180L375 180L375 195L360 195L360 180L345 180L345 195L330 195L330 180L315 180L315 195L300 195L300 180L285 180L285 195L270 195L270 180L255 180L255 195L240 195L240 210L225 210L225 195L210 195L210 210L195 210L195 225L180 225L180 240L195 240L195 255L180 255L180 270L195 270L195 285L180 285L180 300L195 300L195 315L180 315L180 330L195 330L195 345L180 345L180 360L195 360L195 375L180 375L180 390L195 390L195 405L180 405L180 420L195 420L195 435L180 435L180 450L195 450L195 465L180 465L180 480L195 480L195 495L180 495L180 510L195 510L195 525L180 525L180 540L195 540L195 555L180 555L180 570L195 570L195 585L180 585L180 600L195 600L195 615L180 615L180 630L195 630L195 645L180 645L180 660L195 660L195 675L180 675L180 690L195 690L195 705L210 705L210 690L225 690L225 705L240 705L240 720L255 720L255 705L270 705L270 720L285 720L285 705L300 705L300 720L315 720L315 705L330 705L330 720L345 720L345 735L360 735L360 750L375 750L375 735L390 735L390 720L405 720L405 705L420 705L420 720L435 720L435 735L450 735L450 750L465 750L465 735L480 735L480 750L495 750L495 735L510 735L510 750L525 750L525 735L540 735L540 750L555 750L555 735L570 735L570 750L585 750L585 735L600 735L600 750L615 750L615 735L630 735L630 750L645 750L645 735L660 735L660 750L675 750L675 735L690 735L690 720L705 720L705 735L720 735L720 720L735 720L735 705L750 705L750 690L735 690L735 675L750 675L750 660L735 660L735 645L750 645L750 630L765 630L765 615L750 615L750 600L765 600L765 585L750 585L750 570L765 570L765 555L750 555L750 540L765 540L765 525L750 525L750 510L765 510L765 495L750 495L750 480L765 480L765 465L750 465L750 450L765 450L765 435L750 435L750 420L765 420L765 405L750 405L750 390L765 390L765 375L750 375L750 360L765 360L765 345L750 345L750 330L765 330L765 315L750 315L750 300L765 300L765 285L750 285L750 270L735 270L735 255L750 255L750 240C747.277 240 743.775 239.476 741.224 240.603C736.384 242.742 735.111 250.386 735 255C728.051 256.072 720.543 262.855 720 270C715.968 270 708.827 268.998 706.028 272.703C703.859 275.574 705 281.59 705 285L690 285L690 274C684.941 273.783 680.013 272.637 675 272L675 285L660 285L660 270L670 270C666.886 267.679 663.43 265.824 660 264L660 270L645 270L645 255L650 255C648.931 252.168 647.455 249.656 646 247C644.902 249.613 645.007 252.164 645 255L630 255L630 240L642 240L639 225L630 225L630 210L641 210C643.539 193.064 658.809 177.664 675 173L675 165L660 165L660 150L645 150L645 165L630 165L630 150L615 150L615 165L600 165L600 150L585 150L585 165L570 165L570 150L555 150L555 165L540 165L540 150L525 150L525 165L510 165L510 150L495 150L495 165L480 165L480 150L465 150L465 165L450 165L450 150L435 150M915 150L915 165L920 165L920 150L915 150M149 157L144 165L150 165C149.993 162.165 150.098 159.613 149 157M0 165L0 180L15 180L15 165L0 165z"/>
<path style="fill:#ffffff; stroke:none;" d="M435 165L435 180L420 180L420 195L405 195L405 210L390 210L390 195L375 195L375 210L360 210L360 195L345 195L345 210L330 210L330 195L315 195L315 210L300 210L300 195L285 195L285 210L270 210L270 195L255 195L255 210L240 210L240 225L225 225L225 210L210 210L210 225L195 225L195 240L210 240L210 255L195 255L195 270L210 270L210 285L195 285L195 300L210 300L210 315L195 315L195 330L210 330L210 345L195 345L195 360L210 360L210 375L195 375L195 390L210 390L210 405L195 405L195 420L210 420L210 435L195 435L195 450L210 450L210 465L195 465L195 480L210 480L210 495L195 495L195 510L210 510L210 525L195 525L195 540L210 540L210 555L195 555L195 570L210 570L210 585L195 585L195 600L210 600L210 615L195 615L195 630L210 630L210 645L195 645L195 660L210 660L210 675L195 675L195 690L210 690L210 675L225 675L225 690L240 690L240 705L255 705L255 690L270 690L270 705L285 705L285 690L300 690L300 705L315 705L315 690L330 690L330 705L345 705L345 720L360 720L360 735L375 735L375 720L390 720L390 705L405 705L405 690L420 690L420 705L435 705L435 720L450 720L450 735L465 735L465 720L480 720L480 735L495 735L495 720L510 720L510 735L525 735L525 720L540 720L540 735L555 735L555 720L570 720L570 735L585 735L585 720L600 720L600 735L615 735L615 720L630 720L630 735L645 735L645 720L660 720L660 735L675 735L675 720L690 720L690 705L705 705L705 720L720 720L720 705L735 705L735 690L720 690L720 675L735 675L735 660L720 660L720 645L735 645L735 630L750 630L750 615L735 615L735 600L750 600L750 585L735 585L735 570L750 570L750 555L735 555L735 540L750 540L750 525L735 525L735 510L750 510L750 495L735 495L735 480L750 480L750 465L735 465L735 450L750 450L750 435L735 435L735 420L750 420L750 405L735 405L735 390L750 390L750 375L735 375L735 360L750 360L750 345L735 345L735 330L750 330L750 315L735 315L735 300L750 300L750 285L735 285L735 270L720 270L720 285L705 285L705 300L690 300L690 285L675 285L675 300L660 300L660 285L645 285L645 270L630 270L630 255L615 255L615 240L630 240L630 225L615 225L615 210L630 210L630 195L645 195L645 180L660 180L660 165L645 165L645 180L630 180L630 165L615 165L615 180L600 180L600 165L585 165L585 180L570 180L570 165L555 165L555 180L540 180L540 165L525 165L525 180L510 180L510 165L495 165L495 180L480 180L480 165L465 165L465 180L450 180L450 165L435 165z"/>
<path style="fill:#e7e7e7; stroke:none;" d="M690 165L690 170C695.147 170.043 699.966 171.024 705 172L705 165L690 165z"/>
<path style="fill:#f9f9f9; stroke:none;" d="M643 204C649.337 196.194 652.465 186.948 662 182C664.145 199.529 662.536 218.667 662.308 236.343C662.208 244.094 660.936 253.522 663 261L658 262C654.998 256.78 650.832 255.069 645 255L645 270L660 270L660 264C663.203 266.318 666.132 268.113 670 269C666.65 269.99 663.486 269.998 660 270L660 285L675 285L675 272C679.515 272.792 683.543 271.577 688 272L688 205C688 194.596 686.025 181.998 689 172C669.971 169.351 646.279 184.737 643 204z"/>
<path style="fill:#e7e7e7; stroke:none;" d="M45 180L45 191C46.8457 187.604 47.8013 183.685 49 180L45 180M435 180L435 195L420 195L420 210L405 210L405 225L390 225L390 210L375 210L375 225L360 225L360 210L345 210L345 225L330 225L330 210L315 210L315 225L300 225L300 210L285 210L285 225L270 225L270 210L255 210L255 225L240 225L240 240L225 240L225 225L210 225L210 240L225 240L225 255L210 255L210 270L225 270L225 285L210 285L210 300L225 300L225 315L210 315L210 330L225 330L225 345L210 345L210 360L225 360L225 375L210 375L210 390L225 390L225 405L210 405L210 420L225 420L225 435L210 435L210 450L225 450L225 465L210 465L210 480L225 480L225 495L210 495L210 510L225 510L225 525L210 525L210 540L225 540L225 555L210 555L210 570L225 570L225 585L210 585L210 600L225 600L225 615L210 615L210 630L225 630L225 645L210 645L210 660L225 660L225 675L240 675L240 690L255 690L255 675L270 675L270 690L285 690L285 675L300 675L300 690L315 690L315 675L330 675L330 690L345 690L345 705L360 705L360 720L375 720L375 705L390 705L390 690L405 690L405 675L420 675L420 690L435 690L435 705L450 705L450 720L465 720L465 705L480 705L480 720L495 720L495 705L510 705L510 720L525 720L525 705L540 705L540 720L555 720L555 705L570 705L570 720L585 720L585 705L600 705L600 720L615 720L615 705L630 705L630 720L645 720L645 705L660 705L660 720L675 720L675 705L690 705L690 690L705 690L705 705L720 705L720 690L705 690L705 675L720 675L720 660L705 660L705 645L720 645L720 630L735 630L735 615L720 615L720 600L735 600L735 585L720 585L720 570L735 570L735 555L720 555L720 540L735 540L735 525L720 525L720 510L735 510L735 495L720 495L720 480L735 480L735 465L720 465L720 450L735 450L735 435L720 435L720 420L735 420L735 405L720 405L720 390L735 390L735 375L720 375L720 360L735 360L735 345L720 345L720 330L735 330L735 315L720 315L720 300L735 300L735 285L720 285L720 300L705 300L705 315L690 315L690 300L675 300L675 315L660 315L660 300L645 300L645 285L630 285L630 270L615 270L615 255L600 255L600 240L615 240L615 225L600 225L600 210L615 210L615 195L630 195L630 180L615 180L615 195L600 195L600 180L585 180L585 195L570 195L570 180L555 180L555 195L540 195L540 180L525 180L525 195L510 195L510 180L495 180L495 195L480 195L480 180L465 180L465 195L450 195L450 180L435 180M915 180L915 195L920 195L920 180L915 180z"/>
<path style="fill:#f5f5f5; stroke:none;" d="M642 203C638.865 219.827 637.978 236.016 647.725 250.975C650.51 255.249 654.698 258.192 658 262L663 261C661.216 242.903 662.536 224.054 662.562 205.87C662.573 198.328 664.006 189.274 662 182C655.568 183.072 651.997 189.505 649 194C648.241 195.138 646.688 195.82 646 197C644.725 199.186 644.764 201.796 643 204L642 203z"/>
<path style="fill:#e7e7e7; stroke:none;" d="M0 195L0 210L15 210L15 195L0 195M30 195L30 210C32.7839 210 37.057 210.73 39.436 208.972C42.7317 206.537 43.2209 198.775 44 195L30 195M122 210L135 210L135 195C125.346 195.034 123.313 201.112 122 210z"/>
<path style="fill:#ffffff; stroke:none;" d="M435 195L435 210L420 210L420 225L405 225L405 238C407.545 238 408.907 237.698 411 237L412 238L414 236L414 237L416 236C417.23 236.615 416.466 237.668 417 235C425.334 237.355 437.596 233.852 446 232C444.544 234.706 443.874 238.582 446 241C444.466 242.023 444.598 241.805 444 243C445.479 243.986 445.203 244 447 244C445.385 245.401 444.196 245.813 446 247C444.229 250.307 443.291 258.142 446 261C443.941 264.02 443.605 272.258 446 275C444.584 277.599 443.933 280.679 446 283C444.466 284.023 444.598 283.805 444 285C445.479 285.986 445.203 286 447 286C445.385 287.401 444.196 287.813 446 289C444.466 290.023 444.598 289.804 444 291C445.479 291.986 445.203 292 447 292C445.385 293.401 444.196 293.813 446 295C444.645 297.313 444.056 298.978 446 301C444.791 303.011 444.434 304.675 444 307C445.797 307 445.522 306.986 447 306C445.777 307.195 445.58 307.316 444 308C446.052 308.874 447.747 308.953 450 309L450 315L435 315L435 330L420 330L420 345L405 345L405 330L390 330L390 345L375 345L375 360L360 360L360 375L345 375L345 390L360 390L360 405L345 405L345 420L330 420L330 405C322.416 405.589 321.528 413.537 321 420L330 420L330 435C325.577 435 321.261 434.741 317 436C317.572 440.679 317.062 445.306 317 450L330 450L330 465L317 465C317.852 470.285 318.77 475.652 319 481C322.694 480.121 326.214 480.003 330 480L330 495L324 495C324.895 500.203 327.105 505.087 329 510C330.876 505.529 330 499.817 330 495L345 495L345 510L360 510L360 525L375 525L375 540L390 540L390 555L405 555L405 570L420 570L420 585L435 585C434.955 588.859 434.693 591.148 432 594C433.475 594.659 434.794 594.98 436 596C439.052 594.093 442.558 595.004 446 596C443.796 601.412 445.093 608.167 444.986 613.999C444.938 616.619 444.274 619.023 446 621C444.645 623.313 444.056 624.978 446 627C444.625 629.672 445.147 630.664 447 633C445.09 633.579 443.666 633.985 446 635C444.645 637.313 444.056 638.978 446 641C444.625 643.672 445.147 644.665 447 647C445.09 647.579 443.666 647.985 446 649C444.5 651.802 443.817 656.505 446 659C444.466 660.023 444.598 659.805 444 661C445.478 661.986 445.203 662 447 662C445.385 663.401 444.196 663.813 446 665C444.521 665.986 444.797 666 443 666C444.458 667.081 445.248 667.436 447 668C444.09 669.914 441.912 671.184 439 669L438 673L450 673L450 675L435 675L435 690L450 690L450 705L465 705L465 690L480 690L480 705L495 705L495 690L510 690L510 705L525 705L525 690L540 690L540 705L555 705L555 690L570 690L570 705L585 705L585 690L600 690L600 705L615 705L615 690L630 690L630 705L645 705L645 690L660 690L660 705L675 705L675 690L690 690L690 675L705 675L705 660L690 660L690 645L705 645L705 630L720 630L720 615L705 615L705 600L720 600L720 585L705 585L705 570L720 570L720 555L705 555L705 540L720 540L720 525L705 525L705 510L720 510L720 495L705 495L705 480L720 480L720 465L705 465L705 450L720 450L720 435L705 435L705 420L720 420L720 405L705 405L705 390L720 390L720 375L705 375L705 360L720 360L720 345L705 345L705 330L720 330L720 315L705 315L705 330L690 330L690 315L675 315L675 330L660 330L660 315L645 315L645 300L630 300L630 285L615 285L615 270L600 270L600 255L585 255L585 240L600 240L600 225L585 225L585 210L600 210L600 195L585 195L585 210L570 210L570 195L555 195L555 210L540 210L540 195L525 195L525 210L510 210L510 195L495 195L495 210L480 210L480 195L465 195L465 210L450 210L450 195L435 195M885 195L885 210L900 210L900 195L885 195z"/>
<path style="fill:#e7e7e7; stroke:none;" d="M15 210L15 225L30 225L30 210L15 210M435 210L435 225L420 225L420 234C425.059 233.783 429.987 232.637 435 232L435 225L450 225L450 231C455.013 230.937 459.996 230.548 465 231L465 225L480 225C480.279 233.401 488.15 232.459 495 233L495 225L510 225L510 236L525 240L525 225L540 225L540 240L527 240C530.892 242.449 535.633 243.579 540 245L540 240L555 240C555 243.18 554.216 247.667 555.603 250.61C557.939 255.564 565.509 254.997 570 255C571.093 261.756 579.276 265.293 585 268L585 255L570 255L570 240L585 240L585 225L570 225L570 210L555 210L555 225L540 225L540 210L525 210L525 225L510 225L510 210L495 210L495 225L480 225L480 210L465 210L465 225L450 225L450 210L435 210z"/>
<path style="fill:#ffffff; stroke:none;" d="M630 210L630 225L640 225C640 219.899 640.361 215.052 641 210L630 210z"/>
<path style="fill:#e7e7e7; stroke:none;" d="M742 210C742.398 215.045 742.999 219.918 743 225L750 225L750 210L742 210M915 210L915 225L920 225L920 210L915 210M119 217C118.499 219.686 118.117 222.27 118 225L120 225C119.993 222.164 120.098 219.613 119 217M0 225L0 240L15 240L15 225L0 225M30 225L30 240L36 240L37 225L30 225z"/>
<path style="fill:#ffffff; stroke:none;" d="M255 225L255 240L240 240L240 255L225 255L225 270L240 270L240 285L225 285L225 300L240 300L240 315L225 315L225 330L240 330L240 345L225 345L225 360L240 360L240 375L225 375L225 390L240 390L240 405L225 405L225 420L240 420L240 435L225 435L225 450L240 450C240.839 445.48 240.257 441.497 240.47 437C240.735 431.398 242.293 425.595 243 420C238.436 417.041 240 409.913 240 405C247.254 404.422 247.624 396.004 249 390L240 390L240 375L255 375L255 360C262.764 359.742 265.763 351.942 267 345L255 345L255 330L270 330L270 341C272.702 337.571 275.126 333.944 277 330L270 330L270 315L285 315L285 300L300 300L300 285L315 285L315 270L330 270L330 255L345 255L345 264C355.739 260.068 365.065 252.724 376 249C375.276 245.96 375.026 243.122 375 240L390 240L390 225L375 225L375 240L360 240L360 225L345 225L345 240L330 240L330 225L315 225L315 240L300 240L300 225L285 225L285 240L270 240L270 225L255 225M555 225L555 240L570 240L570 225L555 225z"/>
<path style="fill:#f9f9f9; stroke:none;" d="M417 235C411.442 240.252 398.36 237.977 391.259 240.454C378.423 244.931 364.826 252.637 353 259.412C346.254 263.277 337.813 269.353 330 270C327.301 279.196 314.766 282.678 310 291C315.563 288.44 322.331 284.645 325 279C329.918 278.118 332.206 272.902 337 271C335.466 272.023 335.598 271.805 335 273L337 273L335 274C335.65 275.3 335.147 275 337 275L335 276C335.65 277.3 335.147 277 337 277L335 278C335.65 279.3 335.147 279 337 279L335 280C336.761 286.135 333.899 294.845 337 300L335 300C335.65 301.3 335.147 301 337 301L335 302C336.883 305.013 336.235 308.781 336.167 312.333C336.019 319.999 336.333 327.799 336.333 335.667C336.333 338.479 337.478 344.82 335 346C337.725 353.27 333.269 363.794 337 370L335 370C335.65 371.3 335.147 371 337 371L335 372C335.65 373.3 335.147 373 337 373L335 374C336.803 379.878 331.563 384.583 330.106 390C328.882 394.552 330 400.287 330 405L345 405L345 390L332 390C335.38 384.215 337.654 376.161 345 375C345.113 365.312 350.44 360.034 360 360C360.008 349.389 364.389 345.008 375 345C375.101 336.479 381.668 331.108 390 330C392.962 324.781 399.965 322.939 405 320L405 330L420 330L420 315L435 315L435 311C438.695 310.533 442.265 310.031 446 310C445.35 308.7 445.853 309 444 309C445.743 307.889 446.119 307.73 447 306L444 307C444.567 305.137 444.814 303.467 446 302C444.776 300.041 443.82 297.199 446 296C445.402 294.805 445.534 295.023 444 294L447 293C445.914 291.567 444.959 291.102 446 290C445.402 288.805 445.534 289.023 444 288L447 287C445.914 285.567 444.959 285.102 446 284C444.678 281.884 443.763 277.231 446 276C444.484 273.575 443.412 263.232 446 262C444.386 259.418 443.575 249.334 446 248C445.402 246.805 445.534 247.023 444 246L447 245C445.914 243.567 444.959 243.102 446 242C444.633 239.813 443.746 234.24 446 233C436.943 230.274 426.46 236.871 417 235z"/>
<path style="fill:#e7e7e7; stroke:none;" d="M15 240L15 255L30 255L30 240L15 240M114 240L113 255L120 255L120 240L114 240M255 240L255 255L240 255L240 270L255 270L255 285L240 285L240 300L255 300L255 315L240 315L240 330L255 330L255 315L270 315L270 300L285 300L285 285L300 285L300 270L315 270L315 255L330 255L330 240L315 240L315 255L300 255L300 240L285 240L285 255L270 255L270 240L255 240M345 240L345 255L360 255L360 240L345 240M375 240L375 248C379.946 246.082 387.159 244.662 390 240L375 240z"/>
<path style="fill:#ffffff; stroke:none;" d="M630 240L630 255L645 255C645.011 251.02 646.551 244.672 643.333 241.603C640.348 238.758 633.79 240 630 240z"/>
<path style="fill:#e7e7e7; stroke:none;" d="M915 240L915 255L920 255L920 240L915 240M0 255L0 270L15 270L15 255L0 255M30 255L30 270L33 270C33.0006 264.918 33.6018 260.045 34 255L30 255z"/>
<path style="fill:#ffffff; stroke:none;" d="M255 255L255 270L270 270L270 285L255 285L255 300L270 300L270 285L285 285L285 270L300 270L300 255L285 255L285 270L270 270L270 255L255 255z"/>
<path style="fill:#e7e7e7; stroke:none;" d="M330 255L330 270C339.74 269.473 344.993 264.437 345 255L330 255z"/>
<path style="fill:#ffffff; stroke:none;" d="M795 255L795 270L810 270L810 255L795 255z"/>
<path style="fill:#f5f5f5; stroke:none;" d="M810 255L810 270L812 270C811.902 265.266 811.829 259.349 810 255z"/>
<path style="fill:#e7e7e7; stroke:none;" d="M15 270L15 285L30 285L30 270L15 270M111 270L111 285L120 285L120 270L111 270M315 270L315 285C320.567 281.521 328.889 276.884 330 270L315 270M588 270C591.513 273.583 595.644 276.518 600 279L600 270L588 270M915 270L915 285L920 285L920 270L915 270z"/>
<path style="fill:#f5f5f5; stroke:none;" d="M325 279C320.259 285.675 312.274 288.278 306.004 293.299C298.661 299.178 291.507 307.969 285.796 315.424C281.581 320.927 278.484 327.12 274.889 333C268.614 343.263 261.711 353.891 257.019 365.015C242.422 399.619 238.444 437.715 240.019 474.985C240.176 478.704 242.194 481.462 242.946 485.015C244.498 492.348 244.23 499.731 246.299 507C249.392 517.866 254.904 528.525 255 540C258.927 542.228 260.171 546.094 262.258 549.961C265.387 555.755 268.451 562.409 272.118 567.83C276.008 573.58 282.346 579.096 284 586C289.902 590.517 293.733 597.161 298.594 602.714C304.835 609.845 312.563 616.369 320 622.21C324.926 626.079 329.723 630.751 336 632C336.035 628.973 335.372 622.191 337 620C336.35 618.7 336.853 619 335 619C339.598 612.445 333.417 602.503 337 596C336.35 594.7 336.853 595 335 595L337 594C336.35 592.7 336.853 593 335 593L337 592C336.35 590.7 336.853 591 335 591L337 590C336.613 586.064 337.779 579.914 335 577L337 576C334.56 568.2 336.579 557.198 336.442 548.907C336.387 545.539 337.495 541.485 335 539L337 538C336.35 536.7 336.853 537 335 537L337 536C336.35 534.7 336.853 535 335 535L337 534C336.35 532.7 336.853 533 335 533L337 532C336.35 530.7 336.853 531 335 531L337 530C335.85 527.335 336.095 524.58 335.104 521.911C333.958 518.823 331.771 516.211 330.49 513.17C326.054 502.644 322.527 491.34 321 480L319 481C318.708 466.838 316.499 452.524 317.717 438.329C318.069 434.222 319.58 430.095 320.246 426C321.188 420.21 321.581 414.523 323.759 409C325.356 404.952 327.598 401.196 328.882 397.015C329.828 393.933 329.89 390.894 331.351 387.961C333.44 383.767 337.502 378.476 335 374L337 374C336.35 372.7 336.853 373 335 373L337 372C336.35 370.7 336.853 371 335 371L337 370C334.676 362.348 338.921 353.315 335 346C337.627 344.562 336.667 340.526 336.667 337.667C336.667 329.122 336.424 320.585 336.667 312.083C336.75 309.163 337.389 304.599 335 303L337 302C336.35 300.7 336.853 301 335 301L337 300C335.582 295.48 336.551 290.681 336.441 286.005C336.387 283.738 335.756 281.856 337 280C336.35 278.7 336.853 279 335 279L337 278C336.35 276.7 336.853 277 335 277L337 276C336.35 274.7 336.853 275 335 275L337 274C336.35 272.7 336.853 273 335 273L337 272C331.547 270.73 329.714 277.547 325 279z"/>
<path style="fill:#e7e7e7; stroke:none;" d="M0 285L0 300L15 300L15 285L0 285M30 285L30 300C32.6875 295.514 32 290.077 32 285L30 285M300 285L300 299C305.38 295.213 311.048 290.276 315 285L300 285M607 285C609.32 287.87 611.923 289.96 615 292L615 285L607 285z"/>
<path style="fill:#f5f5f5; stroke:none;" d="M812 285L812 301C813.812 296.681 813.812 289.319 812 285z"/>
<path style="fill:#e7e7e7; stroke:none;" d="M15 300L15 315L30 315L30 300L15 300M110 300C110 304.769 109.873 309.3 109 314C112.657 315.081 116.199 315 120 315L120 300L110 300M285 300L285 315C291.226 312.036 294.843 305.461 300 301C295.529 299.124 289.817 300 285 300M623 300C624.922 303.318 626.914 305.723 630 308L630 300L623 300M915 300L915 315L920 315L920 300L915 300M435 311L435 315L450 315L450 309C444.993 309.395 439.94 310.082 435 311M465 309L465 315L450 315L450 330L435 330L435 345L420 345L420 360L405 360L405 345L390 345L390 360L375 360L375 375L360 375L360 390L375 390L375 405L360 405L360 420L345 420L345 435L330 435L330 450L345 450L345 465L330 465L330 480L345 480L345 495L360 495L360 510L375 510L375 525L390 525L390 540L405 540L405 555L420 555L420 570L435 570L435 585L450 585L450 595L465 595L465 585L480 585L480 594C487.03 593.441 494.726 593.343 495 585C499.945 585 505.923 583.911 510 587L514 586C512.494 585.317 511.685 585.174 510 585L510 570L525 570L525 580C531.111 578.066 536.04 574.247 541.286 570.707C547.6 566.445 554.724 563.429 555 555C563.35 554.729 569.729 548.35 570 540C577.3 539.425 581.613 531.298 584 525L570 525L570 510L585 510L585 523C588.55 519.487 590.625 514.773 592 510L585 510L585 495C588.41 495 594.426 496.142 597.297 493.972C600.207 491.774 599.707 487.209 600.125 484.039C600.962 477.697 603.179 471.493 604 465L600 465L600 450L604 450C604 444.871 605.855 436.943 600 435C600 429.243 599.946 423.679 601 418C596.075 420.739 590.481 420 585 420L585 405L596 405C594.822 398.156 592.823 390.26 585 390C585 385.646 586.163 378.713 581.772 376.028C578.633 374.109 573.53 375 570 375L570 360L555 360L555 345L540 345C540 341.322 541.28 334.565 538.397 331.742C535.402 328.811 528.823 330 525 330C524.892 320.932 517.432 319.883 510 317L510 330L495 330L495 315L501 315C497.28 312.804 494.931 314.412 490.961 314.871C487.367 315.287 483.614 315 480 315L480 310C474.972 309.066 470.1 309 465 309M0 315L0 330L15 330L15 315L0 315M30 315L30 326C31.4309 322.59 31.4309 318.41 30 315M270 315L270 330C278.204 329.902 283.446 322.808 285 315L270 315M420 315L420 330L435 330L435 315L420 315z"/>
<path style="fill:#ffffff; stroke:none;" d="M465 315L465 330L450 330L450 345L435 345L435 360L420 360L420 375L405 375L405 360L390 360L390 375L375 375L375 390L390 390L390 405L375 405L375 420L360 420L360 435L345 435L345 450L360 450L360 465L345 465L345 480L360 480L360 495L375 495L375 510L390 510L390 525L405 525L405 540L420 540L420 555L435 555L435 570L450 570L450 585L465 585L465 570L480 570L480 585L495 585L495 570L510 570L510 555L525 555L525 570L540 570L540 555L555 555L555 540L570 540L570 525L555 525L555 510L570 510L570 495L585 495L585 480L600 480L600 465L585 465L585 450L600 450L600 435L585 435L585 420L570 420L570 405L585 405L585 390L570 390L570 375L555 375L555 360L540 360L540 345L525 345L525 330L510 330L510 345L495 345L495 330L480 330L480 315L465 315z"/>
<path style="fill:#e7e7e7; stroke:none;" d="M636 315C637.998 319.726 641.464 323.55 644 328C645.661 324.041 645 319.263 645 315L636 315M404 320C399.303 322.742 391.862 324.548 390 330L405 330C405 326.586 405.327 323.163 404 320M15 330L15 345L30 345L30 330L15 330M109 330L109 345L120 345L120 330L109 330M255 330L255 345C258.477 345 263.583 345.905 266.656 343.972C271.067 341.198 270 334.424 270 330L255 330M375 345L390 345L390 330C380.906 330.609 375.032 336.044 375 345M405 330L405 345L420 345L420 330L405 330M465 330L465 345L450 345L450 360L435 360L435 375L420 375L420 390L405 390L405 375L390 375L390 390L405 390L405 405L390 405L390 420L375 420L375 435L360 435L360 450L375 450L375 465L360 465L360 480L375 480L375 495L390 495L390 510L405 510L405 525L420 525L420 540L435 540L435 555L450 555L450 570L465 570L465 555L480 555L480 570L495 570L495 555L510 555L510 540L525 540L525 555L540 555L540 540L555 540L555 525L540 525L540 510L555 510L555 495L570 495L570 480L585 480L585 465L570 465L570 450L585 450L585 435L570 435L570 420L555 420L555 405L570 405L570 390L555 390L555 375L540 375L540 360L525 360L525 345L510 345L510 360L495 360L495 345L480 345L480 330L465 330M646 330C649.32 335.987 652.467 344.419 660 345C660.001 350.344 660.636 354.845 662 360L675 360L675 375L669 375C670.747 381.401 673.61 387.507 675.045 394C675.703 396.98 675.884 401.992 678.564 403.972C681.318 406.007 686.758 405 690 405L690 420L680 420C681.17 424.869 681.661 430.004 682 435L690 435L690 450L683 450L682 465L690 465L690 480L681 480C680.061 484.982 679.105 489.921 679 495L690 495L690 510L675 510L675 525C667.901 525.566 666.429 533.971 665 540L675 540L675 555L660 555L660 551C658.919 552.458 658.564 553.248 658 555C661.089 559.077 660 565.055 660 570C656.764 570 652.344 569.247 649.329 570.603C644.114 572.95 645.001 580.358 645 585C636.448 585.101 630.574 591.442 630 600C623.024 601.076 616.076 608.024 615 615C607.39 616.017 600.257 622.155 600 630C589.231 630.038 585.001 634.611 585 645L570 645L570 660L555 660L555 653C548.143 654.975 541.848 658.594 535 660.717C532.255 661.568 527.86 662.259 526.028 664.702C524.131 667.231 525 672.022 525 675L510 675L510 668L495 671L495 675C488.105 675 481.666 673.186 474.989 673.029C466.604 672.833 458.477 675 450 675L450 690L465 690L465 675L480 675L480 690L495 690L495 675L510 675L510 690L525 690L525 675L540 675L540 690L555 690L555 675L570 675L570 690L585 690L585 675L600 675L600 690L615 690L615 675L630 675L630 690L645 690L645 675L660 675L660 690L675 690L675 675L690 675L690 660L675 660L675 645L690 645L690 630L705 630L705 615L690 615L690 600L705 600L705 585L690 585L690 570L705 570L705 555L690 555L690 540L705 540L705 525L690 525L690 510L705 510L705 495L690 495L690 480L705 480L705 465L690 465L690 450L705 450L705 435L690 435L690 420L705 420L705 405L690 405L690 390L705 390L705 375L690 375L690 360L705 360L705 345L690 345L690 330L675 330L675 345L660 345L660 330L646 330M915 330L915 345L920 345L920 330L915 330M0 345L0 360L15 360L15 345L0 345M240 345L240 360L255 360L255 345L240 345M360 360L375 360L375 345C363.703 345.001 360.001 348.703 360 360z"/>
<path style="fill:#ffffff; stroke:none;" d="M465 345L465 360L450 360L450 375L435 375L435 390L420 390L420 405L405 405L405 420L390 420L390 435L375 435L375 450L390 450L390 465L375 465L375 480L390 480L390 495L405 495L405 510L420 510L420 525L435 525L435 540L450 540L450 555L465 555L465 540L480 540L480 555L495 555L495 540L510 540L510 525L525 525L525 540L540 540L540 525L525 525L525 510L540 510L540 495L555 495L555 480L570 480L570 465L555 465L555 450L570 450L570 435L555 435L555 420L540 420L540 405L555 405L555 390L540 390L540 375L525 375L525 360L510 360L510 375L495 375L495 360L480 360L480 345L465 345M675 345L675 360L690 360L690 345L675 345z"/>
<path style="fill:#e7e7e7; stroke:none;" d="M15 360L15 375L30 375L30 360L15 360M109 360L109 375L120 375L120 360L109 360M255 360L255 369C257.062 366.272 258.099 363.294 259 360L255 360M345 375L360 375L360 360C349.748 360.008 345.037 364.58 345 375M465 360L465 375L450 375L450 390L435 390L435 405L420 405L420 420L405 420L405 435L390 435L390 450L405 450L405 465L390 465L390 480L405 480L405 495L420 495L420 510L435 510L435 525L450 525L450 540L465 540L465 525L480 525L480 540L495 540L495 525L510 525L510 510L525 510L525 495L540 495L540 480L555 480L555 465L540 465L540 450L555 450L555 435L540 435L540 420L525 420L525 405L540 405L540 390L525 390L525 375L510 375L510 390L495 390L495 375L480 375L480 360L465 360M915 360L915 375L920 375L920 360L915 360M0 375L0 390L15 390L15 375L0 375M240 375L240 390C249.782 389.965 250.998 383.656 253 375L240 375M332 390L345 390L345 375C337.38 375.588 334.627 383.692 332 390z"/>
<path style="fill:#ffffff; stroke:none;" d="M465 375L465 390L450 390L450 405L435 405L435 420L420 420L420 435L405 435L405 450L420 450L420 465L405 465L405 480L420 480L420 495L435 495L435 510L450 510L450 525L465 525L465 510L480 510L480 525L495 525L495 510L510 510L510 495L525 495L525 480L540 480L540 465L525 465L525 450L540 450L540 435L525 435L525 420L510 420L510 405L525 405L525 390L510 390L510 405L495 405L495 390L480 390L480 375L465 375M675 375L675 390L690 390L690 375L675 375z"/>
<path style="fill:#e7e7e7; stroke:none;" d="M15 390L15 405L30 405L30 390L15 390M108 390C108.466 394.914 108.515 400.089 108 405L120 405L120 390L108 390M345 390L345 405L360 405L360 390L345 390M465 390L465 405L450 405L450 420L435 420L435 435L420 435L420 450L435 450L435 465L420 465L420 480L435 480L435 495L450 495L450 510L465 510L465 495L480 495L480 510L495 510L495 495L510 495L510 480L525 480L525 465L510 465L510 450L525 450L525 435L510 435L510 420L495 420L495 405L480 405L480 390L465 390M915 390L915 405L920 405L920 390L915 390M329 395L326 405L330 405C330 401.586 330.327 398.163 329 395M0 405L0 420L15 420L15 405L0 405M240 405L240 420L242 420C242.637 414.987 243.783 410.059 244 405L240 405M330 405L330 420L345 420L345 405L330 405z"/>
<path style="fill:#ffffff; stroke:none;" d="M465 405L465 420L450 420L450 435L435 435L435 450L450 450L450 465L435 465L435 480L450 480L450 495L465 495L465 480L480 480L480 495L495 495L495 480L510 480L510 465L495 465L495 450L510 450L510 435L495 435L495 420L480 420L480 405L465 405z"/>
<path style="fill:#e7e7e7; stroke:none;" d="M15 420L15 435L30 435L30 420L15 420M108 420C108.466 424.914 108.515 430.089 108 435L120 435L120 420L108 420M321 420C320.363 425.013 319.217 429.941 319 435L330 435L330 420L321 420M465 420L465 435L450 435L450 450L465 450L465 465L450 465L450 480L465 480L465 465L480 465L480 480L495 480L495 465L480 465L480 450L495 450L495 435L480 435L480 420L465 420M915 420L915 435L920 435L920 420L915 420M0 435L0 450L15 450L15 435L0 435z"/>
<path style="fill:#ffffff; stroke:none;" d="M465 435L465 450L480 450L480 435L465 435z"/>
<path style="fill:#e7e7e7; stroke:none;" d="M15 450L15 465L30 465L30 450L15 450M108 450C108.466 454.914 108.515 460.089 108 465L120 465L120 450L108 450M318 450L318 465L330 465L330 450L318 450M915 450L915 465L920 465L920 450L915 450M0 465L0 480L15 480L15 465L0 465z"/>
<path style="fill:#ffffff; stroke:none;" d="M225 465L225 480L240 480L240 465L225 465z"/>
<path style="fill:#e7e7e7; stroke:none;" d="M15 480L15 495L30 495L30 480L15 480M108 480C108.466 484.914 108.515 490.089 108 495L120 495L120 480L108 480z"/>
<path style="fill:#ffffff; stroke:none;" d="M240 480L240 495L225 495L225 510L240 510L240 525L225 525L225 540L240 540L240 555L225 555L225 570L240 570L240 585L225 585L225 600L240 600L240 615L225 615L225 630L240 630L240 645L225 645L225 660L240 660L240 675L255 675L255 660L270 660L270 675L285 675L285 660L300 660L300 675L315 675L315 660L330 660L330 675L345 675L345 690L360 690L360 705L375 705L375 690L390 690L390 675L375 675L375 660L360 660L360 675L345 675L345 660L330 660L330 645L315 645L315 630L330 630C325.836 625.308 320.315 621.321 315 618L315 630L300 630L300 615L312 615C308.481 610.932 304.397 607.097 300 604L300 615L285 615L285 600L297 600C293.597 595.023 289.694 589.797 285 586L285 600L270 600L270 585L285 585C281.328 579.05 277.624 570.587 270 570C269.982 563.875 268.321 559.583 266 554C262.306 554.88 258.786 554.997 255 555L255 540L240 540L240 525L253 525C251.57 521.294 250.432 513.491 247.272 511.028C245.382 509.554 242.232 510.008 240 510L240 495L245 495C244.036 490.028 243.466 484.825 242 480L240 480z"/>
<path style="fill:#e7e7e7; stroke:none;" d="M321 480C321.418 485.114 322.966 489.988 324 495L330 495L330 480L321 480M915 480L915 495L920 495L920 480L915 480M0 495L0 510L15 510L15 495L0 495M240 495L240 510L247 510L244 495L240 495M330 495L330 510L345 510L345 525L338 525C339.677 528.547 341.808 531.748 344 535C345.327 531.837 345 528.414 345 525L360 525L360 540L348 540C351.352 544.902 355.142 549.55 360 553L360 540L375 540L375 555L362 555C365.373 559.583 369.941 563.39 375 566L375 555L390 555L390 570L381 570C383.61 572.846 386.391 574.631 390 576L390 570L405 570C405 573.514 403.516 581.527 406.603 583.972C409.551 586.306 416.435 585 420 585C421.141 591.896 429.209 591.877 435 593L435 585L420 585L420 570L405 570L405 555L390 555L390 540L375 540L375 525L360 525L360 510L345 510L345 495L330 495M15 510L15 525L30 525L30 510L15 510M108 510C108.47 514.951 108.451 520.048 108 525L120 525L120 510L108 510z"/>
<path style="fill:#f9f9f9; stroke:none;" d="M329 511C330.587 514.792 333.09 518.186 334.58 521.985C335.72 524.89 335.137 527.404 337 530L335 530C335.65 531.3 335.147 531 337 531L335 532C335.65 533.3 335.147 533 337 533L335 534C335.65 535.3 335.147 535 337 535L335 536C335.65 537.3 335.147 537 337 537L335 538C337.07 541.312 336 545.151 336 549C336 554.909 336.437 560.748 336.333 566.667C336.272 570.182 334.549 573.455 337 576L335 576C335.65 577.3 335.147 577 337 577C335.902 580.682 337.757 587.371 335 590C335.65 591.3 335.147 591 337 591L335 592C335.65 593.3 335.147 593 337 593L335 594C335.65 595.3 335.147 595 337 595L335 596C336.915 600.855 336.113 606.217 336.222 611.361C336.273 613.779 337.078 616.633 335 618C335.65 619.3 335.147 619 337 619C335.202 622.521 336.023 627.994 336 632L330 630L330 645L345 645L345 660L360 660L360 649C365.167 652.016 373.088 653.886 375 660C379.301 660 386.273 658.998 388.972 663.279C390.913 666.356 390 671.515 390 675L405 675L405 667C410.976 667.772 418.855 667.988 420 675L435 675L439 669C441.944 671.049 443.789 670.34 447 669C445.542 667.919 444.752 667.564 443 667C444.479 666.014 444.203 666 446 666C445.402 664.805 445.534 665.023 444 664L447 663C445.914 661.567 444.959 661.102 446 660C444.591 657.746 443.731 651.248 446 650C445.402 648.805 445.534 649.023 444 648L447 647C445.876 645.131 444.795 643.869 446 642C444.776 640.041 443.82 637.199 446 636C445.402 634.805 445.534 635.023 444 634L447 633C445.876 631.131 444.795 629.869 446 628C444.776 626.041 443.82 623.199 446 622C444.427 619.484 445 617.05 445 614C445 608.443 443.601 600.959 446 596C443.065 595.11 439.438 593.871 437 596C435.047 594.907 434.265 594.838 432 595C432.986 593.522 433 593.797 433 592C427.521 591.552 421.754 590.829 420 585C416.279 585 409.483 586.276 406.603 583.397C403.724 580.517 405 573.721 405 570L390 570L390 576L381 571C384.041 570.1 386.831 570.008 390 570L390 555L375 555L375 566C370.457 562.576 366.11 558.933 362 555L375 555L375 540L360 540L360 553L348 540L360 540L360 525L345 525L345 535L338 525L345 525L345 510C339.66 510 334.146 509.479 329 511z"/>
<path style="fill:#e7e7e7; stroke:none;" d="M915 510L915 525L920 525L920 510L915 510M0 525L0 540L15 540L15 525L0 525M240 525L240 540L255 540C254.988 535.638 255.37 527.869 250.606 525.603C247.676 524.209 243.171 525 240 525z"/>
<path style="fill:#ffffff; stroke:none;" d="M675 525L675 540L690 540L690 525L675 525z"/>
<path style="fill:#e7e7e7; stroke:none;" d="M15 540L15 555L30 555L30 540L15 540M109 540L109 555L120 555L120 540L109 540M255 540L255 555L265 555L258 540L255 540M915 540L915 555L920 555L920 540L915 540M0 555L0 570L15 570L15 555L0 555M240 555L240 570L255 570L255 585L240 585L240 600L255 600L255 615L240 615L240 630L255 630L255 645L240 645L240 660L255 660L255 645L270 645L270 660L285 660L285 645L300 645L300 660L315 660L315 645L300 645L300 630L285 630L285 615L270 615L270 600L255 600L255 585L270 585L270 570L255 570L255 555L240 555z"/>
<path style="fill:#ffffff; stroke:none;" d="M675 555L675 570L660 570L660 585L645 585L645 600L630 600L630 615L615 615L615 630L600 630L600 645L585 645L585 660L570 660L570 675L585 675L585 660L600 660L600 675L615 675L615 660L630 660L630 675L645 675L645 660L660 660L660 675L675 675L675 660L660 660L660 645L675 645L675 630L690 630L690 615L675 615L675 600L690 600L690 585L675 585L675 570L690 570L690 555L675 555z"/>
<path style="fill:#e7e7e7; stroke:none;" d="M270 565C270.064 567.993 269.946 569.346 273 570C272.199 567.896 271.503 566.663 270 565M15 570L15 585L30 585L30 570L15 570M109 570L109 585L120 585L120 570L109 570M915 570L915 585L920 585L920 570L915 570M0 585L0 600L15 600L15 585L0 585M30 585L30 600C31.7404 595.852 31.7404 589.148 30 585M270 585L270 600L285 600C285 596.486 286.484 588.473 283.397 586.028C280.449 583.694 273.565 585 270 585M660 585L660 600L645 600L645 615L630 615L630 630L615 630L615 645L600 645L600 660L615 660L615 645L630 645L630 660L645 660L645 645L660 645L660 630L675 630L675 615L660 615L660 600L675 600L675 585L660 585z"/>
<path style="fill:#f5f5f5; stroke:none;" d="M450 595C453.717 597.704 460.341 595.255 464 598L465 595L450 595z"/>
<path style="fill:#e7e7e7; stroke:none;" d="M15 600L15 615L30 615L30 600L15 600M110 600L110 615L120 615L120 600L110 600M285 600L285 615L300 615C300 610.576 301.067 603.802 296.656 601.028C293.583 599.095 288.477 600 285 600M915 600L915 615L920 615L920 600L915 600M0 615L0 630L15 630L15 615L0 615M30 615L30 630C31.7968 630 31.5215 629.986 33 629C32.1274 624.3 32 619.769 32 615L30 615z"/>
<path style="fill:#ffffff; stroke:none;" d="M255 615L255 630L270 630L270 645L285 645L285 630L270 630L270 615L255 615z"/>
<path style="fill:#e7e7e7; stroke:none;" d="M300 615L300 630L315 630C315 625.948 316.172 619.543 312.682 616.603C309.558 613.971 303.797 615 300 615z"/>
<path style="fill:#ffffff; stroke:none;" d="M645 615L645 630L630 630L630 645L645 645L645 630L660 630L660 615L645 615z"/>
<path style="fill:#e7e7e7; stroke:none;" d="M15 630L15 645L30 645L30 630L15 630M111 630L112 645L120 645L120 630L111 630M315 630L315 645L330 645L330 630L315 630M915 630L915 645L920 645L920 630L915 630M345 641L345 645L351 645C349.111 643.224 347.343 642.122 345 641M0 645L0 660L15 660L15 645L0 645M30 645L30 660L35 660L34 645L30 645M330 645L330 660L345 660L345 645L330 645M360 649L360 660L375 660C373.905 653.631 365.401 651.249 360 649M15 660L15 675L30 675L30 660L15 660M114 660L116 675L120 675L120 660L114 660M345 660L345 675L360 675L360 660L345 660M375 660L375 675L390 675C390 671.483 391.12 665.52 388.972 662.514C386.303 658.778 378.957 660 375 660z"/>
<path style="fill:#ffffff; stroke:none;" d="M540 660L540 675L555 675L555 660L540 660z"/>
<path style="fill:#e7e7e7; stroke:none;" d="M915 660L915 675L920 675L920 660L915 660M435 672C436.085 677.062 445.694 675 450 675L450 673L435 672M0 675L0 690L15 690L15 675L0 675M30 675L30 690L39 690C38.8947 684.927 37.8156 679.997 37 675L30 675M360 675L360 690L375 690L375 675L360 675M15 690L15 705L30 705L30 690L15 690M915 690L915 705L920 705L920 690L915 690M0 705L0 720L15 720L15 705L0 705M30 705L30 720L45 720C44.9996 716.085 46.0639 708.715 42.436 706.028C39.5087 703.86 33.4595 705 30 705M125 705C127.125 710.478 128.91 718.096 135 720L135 705L125 705z"/>
<path style="fill:#ffffff; stroke:none;" d="M885 705L885 720L900 720L900 705L885 705z"/>
<path style="fill:#e7e7e7; stroke:none;" d="M15 720L15 735L30 735L30 750L15 750L15 765L30 765L30 780L15 780L15 795L30 795L30 810L15 810L15 825L30 825L30 840L15 840L15 855L30 855L30 870L15 870L15 885L30 885L30 900L45 900L45 885L60 885L60 900L75 900L75 885L90 885L90 900L105 900L105 885L120 885L120 900L135 900L135 885L150 885L150 900L165 900L165 885L180 885L180 900L195 900L195 885L180 885L180 870L165 870L165 855L150 855L150 870L135 870L135 855L120 855L120 840L105 840L105 825L90 825L90 810L75 810L75 795L60 795L60 780L45 780L45 765L60 765L60 750L45 750L45 735L30 735L30 720L15 720M45 720L45 735L53 735C51.0956 730.063 49.1947 725.164 48 720L45 720M135 720C135.046 725.057 135.974 732.026 141.326 734.397C143.853 735.516 147.303 735 150 735L150 720L135 720M915 720L915 735L920 735L920 720L915 720M0 735L0 750L15 750L15 735L0 735M150 735C150 738.721 148.724 745.517 151.603 748.397C154.483 751.276 161.279 750 165 750L165 735L150 735z"/>
<path style="fill:#ffffff; stroke:none;" d="M885 735L885 750L870 750L870 765L885 765L885 780L870 780L870 795L855 795L855 810L840 810L840 825L825 825L825 840L810 840L810 855L795 855L795 870L780 870L780 855L765 855L765 870L750 870L750 885L765 885L765 870L780 870L780 885L795 885L795 870L810 870L810 885L825 885L825 870L840 870L840 885L855 885L855 870L870 870L870 885L885 885L885 870L900 870L900 855L885 855L885 840L900 840L900 825L885 825L885 810L900 810L900 795L885 795L885 780L900 780L900 765L885 765L885 750L900 750L900 735L885 735M30 750L30 765L45 765L45 750L30 750z"/>
<path style="fill:#e7e7e7; stroke:none;" d="M165 750C165 753.678 163.72 760.435 166.603 763.258C169.598 766.189 176.178 765 180 765L180 750L165 750M915 750L915 765L920 765L920 750L915 750M0 765L0 780L15 780L15 765L0 765M60 765L60 780L75 780C73.1388 771.885 68.6957 765.103 60 765M180 765C180.007 774.662 185.002 779.704 195 780L195 765L180 765M210 765L210 780L195 780C196.519 785.214 205.066 787.351 210 788L210 780L225 780L225 794C235.08 795.274 244.874 798.916 255 799L255 795L270 795L270 801C275.029 801.934 279.899 802 285 802L285 795L300 795L300 803C305.02 803.013 310.012 803.455 315 804L315 795L330 795L330 804C335.076 804.001 339.968 804.339 345 805L345 795L330 795L330 780L315 780L315 795L300 795L300 780L285 780L285 795L270 795L270 780L255 780L255 795L240 795L240 780L225 780L225 765L210 765z"/>
<path style="fill:#ffffff; stroke:none;" d="M30 780L30 795L45 795L45 810L30 810L30 825L45 825L45 840L30 840L30 855L45 855L45 870L30 870L30 885L45 885L45 870L60 870L60 885L75 885L75 870L90 870L90 885L105 885L105 870L120 870L120 885L135 885L135 870L120 870L120 855L105 855L105 840L90 840L90 825L75 825L75 810L60 810L60 795L45 795L45 780L30 780z"/>
<path style="fill:#e7e7e7; stroke:none;" d="M75 780L75 795L87 795C84.5947 789.602 80.1493 783.026 75 780z"/>
<path style="fill:#f9f9f9; stroke:none;" d="M210 780L210 790L218 792C218 793.928 216.874 795.49 217 797C217.501 803.015 217.214 810.068 218 814L217 814L218 816C218 823.604 216.772 828.63 218 836C218.369 838.216 217 839.178 217 841C217 844.066 218 848.772 218 852C218 852.367 217 853.981 217 855L219 855C217.741 858.108 216.612 862.315 219 865L217 866C217.65 867.3 217.147 867 219 867L217 868L218 871C210.375 869.878 202.192 867.772 195 865L195 870L210 870L210 885L225 885L225 874C233.124 875.575 239.885 875.255 240 885L255 885L255 879L270 880L270 885L285 885L285 881L300 881L300 885L315 885L315 882L330 882L330 885C337.85 885 345.345 882.926 352.999 883.005C359.167 883.069 364.617 885.399 370.961 884.946C374.77 884.674 378.107 883.046 382.001 883.005C388.172 882.942 393.709 885.215 399.985 884.982C409.668 884.621 419.096 881.589 429 882C426.305 877.688 427.833 870.644 427.833 865.667C427.833 851.934 428.188 837.889 427.667 824.333C427.492 819.8 430.222 807.614 425 807C428.35 806.01 431.514 806.002 435 806C430.529 804.124 424.817 805 420 805L420 795L405 795L405 805L388.255 806.192L339 806L341 805C337.568 803.56 333.7 804 330 804L330 795L315 795L315 804C310.052 803.034 305.029 803.003 300 803L300 795L285 795L285 802C279.899 802 275.052 801.639 270 801L270 795L255 795L255 799C244.808 798.79 235.263 794.81 225 794L225 780L210 780z"/>
<path style="fill:#e7e7e7; stroke:none;" d="M405 780L405 795L420 795L420 780L405 780M915 780L915 795L920 795L920 780L915 780M0 795L0 810L15 810L15 795L0 795M390 795L390 805L405 805L405 795L390 795M420 795L420 805L435 805L435 795L420 795M870 795L870 810L855 810L855 825L840 825L840 840L825 840L825 855L810 855L810 870L825 870L825 855L840 855L840 870L855 870L855 855L870 855L870 870L885 870L885 855L870 855L870 840L885 840L885 825L870 825L870 810L885 810L885 795L870 795M90 798L90 810L101 810C97.9131 805.601 94.2724 801.267 90 798z"/>
<path style="fill:#f9f9f9; stroke:none;" d="M465 806C463.86 807.253 462.801 807.441 462 809C459.889 807.225 457.462 806.212 456 809C453.275 807.118 451.691 807.043 449 809L449 807C447.7 807.65 448 807.147 448 809L447 807C445.7 807.65 446 807.147 446 809L445 807C443.7 807.65 444 807.147 444 809L443 807C441.7 807.65 442 807.147 442 809L441 807C439.7 807.65 440 807.147 440 809L439 807C437.7 807.65 438 807.147 438 809L437 807C435.7 807.65 436 807.147 436 809C433.618 807.322 431.913 807.084 429 807L429 881C431.701 874.564 430 864.951 430 858L430 808L434 808C432.521 808.986 432.797 809 431 809L431 881C433.599 874.806 432 865.686 432 859L432 810C436.834 814.734 435 823.653 435 830L435 880C437.599 873.806 436 864.686 436 858L436 811C438.198 818.435 437 827.278 437 835L437 880C439.599 873.806 438 864.686 438 858L438 811C440.198 818.435 439 827.278 439 835L439 880C441.599 873.806 440 864.686 440 858L440 811C442.198 818.435 441 827.278 441 835L441 880C443.599 873.806 442 864.686 442 858L442 811C444.198 818.435 443 827.278 443 835L443 880C445.599 873.806 444 864.686 444 858L444 811C446.198 818.435 445 827.278 445 835L445 880C447.599 873.806 446 864.686 446 858L446 811C448.198 818.435 447 827.278 447 835L447 880C449.599 873.806 448 864.686 448 858L448 811C450.198 818.435 449 827.278 449 835L449 880C451.599 873.806 450 864.686 450 858L450 811C452.198 818.435 451 827.278 451 835L451 880C453.599 873.806 452 864.686 452 858L452 811C454.198 818.435 453 827.278 453 835L453 880C455.599 873.806 454 864.686 454 858L454 811C456.198 818.435 455 827.278 455 835L455 880C457.599 873.806 456 864.686 456 858L456 811C458.198 818.435 457 827.278 457 835L457 880C459.599 873.806 458 864.686 458 858L458 811C460.198 818.435 459 827.278 459 835L459 880C461.599 873.806 460 864.686 460 858L460 811C462.198 818.435 461 827.278 461 835L461 880C463.599 873.806 462 864.686 462 858L462 811C464.198 818.435 463 827.278 463 835L463 880C465.599 873.806 464 864.686 464 858L464 811C466.198 818.435 465 827.278 465 835L465 880C467.599 873.806 466 864.686 466 858L466 811C468.198 818.435 467 827.278 467 835L467 880C469.085 875.031 468 868.35 468 863L468 828C468 821.919 467.076 815.479 470 810L468 806C466.805 806.598 467.023 806.466 466 808C466 806.147 466.3 806.65 465 806z"/>
<path style="fill:#e7e7e7; stroke:none;" d="M45 810L45 825L60 825L60 840L45 840L45 855L60 855L60 870L75 870L75 855L90 855L90 870L105 870L105 855L90 855L90 840L75 840L75 825L60 825L60 810L45 810M915 810L915 825L920 825L920 810L915 810M105 814L105 825L117 825C113.782 820.627 109.448 817.097 105 814M0 825L0 840L15 840L15 825L0 825z"/>
<path style="fill:#ffffff; stroke:none;" d="M855 825L855 840L840 840L840 855L855 855L855 840L870 840L870 825L855 825z"/>
<path style="fill:#e7e7e7; stroke:none;" d="M120 827L120 840L135 840C132.092 834.273 125.366 830.341 120 827z"/>
<path style="fill:#ffffff; stroke:none;" d="M60 840L60 855L75 855L75 840L60 840z"/>
<path style="fill:#e7e7e7; stroke:none;" d="M135 840L135 855L150 855C149.968 846.036 143.878 841.162 135 840M915 840L915 855L920 855L920 840L915 840M0 855L0 870L15 870L15 855L0 855M180 861L180 870L195 870L195 866C189.831 864.804 185.013 862.696 180 861z"/>
<path style="fill:#ffffff; stroke:none;" d="M150 870L150 885L165 885L165 870L150 870z"/>
<path style="fill:#e7e7e7; stroke:none;" d="M195 870L195 885L210 885L210 870L195 870z"/>
<path style="fill:#ffffff; stroke:none;" d="M720 870L720 885L735 885L735 870L720 870z"/>
<path style="fill:#e7e7e7; stroke:none;" d="M915 870L915 885L920 885L920 870L915 870M225 874L225 885L240 885C239.992 882.75 240.459 879.504 238.972 877.6C236.616 874.58 228.572 874.461 225 874M255 879L255 885L270 885L270 880C264.972 879.214 260.085 879.001 255 879M285 881L285 885L300 885L300 881L285 881M315 882L315 885L330 885L330 882L315 882M345 883L345 885L360 885L360 883L345 883M375 883L375 885L390 885L390 883L375 883M405 883L405 885L420 885L420 883L405 883M0 885L0 900L15 900L15 885L0 885M210 885L210 900L225 900L225 885L210 885M240 885L240 900L255 900L255 885L240 885M270 885L270 900L285 900L285 885L270 885M300 885L300 900L315 900L315 885L300 885M330 885L330 900L345 900L345 885L330 885M360 885L360 900L375 900L375 885L360 885M390 885L390 900L405 900L405 885L390 885M15 900L15 907L30 907L30 900L15 900M45 900L45 907L60 907L60 900L45 900M75 900L75 907L90 907L90 900L75 900M105 900L105 907L120 907L120 900L105 900M135 900L135 907L150 907L150 900L135 900M165 900L165 907L180 907L180 900L165 900M195 900L195 907L210 907L210 900L195 900M225 900L225 907L240 907L240 900L225 900M255 900L255 907L270 907L270 900L255 900M285 900L285 907L300 907L300 900L285 900M315 900L315 907L330 907L330 900L315 900M345 900L345 907L360 907L360 900L345 900M375 900L375 907L390 907L390 900L375 900M405 900L405 907L420 907L420 900L405 900M435 900L435 907L450 907L450 900L435 900M465 900L465 907L480 907L480 900L465 900M495 900L495 907L510 907L510 900L495 900M525 900L525 907L540 907L540 900L525 900M555 900L555 907L570 907L570 900L555 900M585 900L585 907L600 907L600 900L585 900M615 900L615 907L630 907L630 900L615 900M645 900L645 907L660 907L660 900L645 900M675 900L675 907L690 907L690 900L675 900M705 900L705 907L720 907L720 900L705 900M735 900L735 907L750 907L750 900L735 900M765 900L765 907L780 907L780 900L765 900M795 900L795 907L810 907L810 900L795 900M825 900L825 907L840 907L840 900L825 900M855 900L855 907L870 907L870 900L855 900M885 900L885 907L900 907L900 900L885 900M915 900L915 907L920 907L920 900L915 900z"/>
</svg>
